<?xml version="1.0" encoding="UTF-8" standalone="no"?>
<!-- Created with Inkscape (http://www.inkscape.org/) -->

<svg width="500" height="400" viewBox="0 0 500 400" version="1.1" id="svg1" inkscape:version="1.3.2 (091e20e, 2023-11-25)" sodipodi:docname="e5_polar_P1P2_right_angle_cloud.svg" xmlns:inkscape="http://www.inkscape.org/namespaces/inkscape" xmlns:sodipodi="http://sodipodi.sourceforge.net/DTD/sodipodi-0.dtd" xmlns="http://www.w3.org/2000/svg" xmlns:svg="http://www.w3.org/2000/svg">
    <sodipodi:namedview id="namedview1" pagecolor="#ffffff" bordercolor="#000000" borderopacity="0.25" inkscape:showpageshadow="2" inkscape:pageopacity="0.0" inkscape:pagecheckerboard="0" inkscape:deskcolor="#d1d1d1" inkscape:zoom="2.6700352" inkscape:cx="331.08178" inkscape:cy="186.88892" inkscape:window-width="1728" inkscape:window-height="1051" inkscape:window-x="0" inkscape:window-y="34" inkscape:window-maximized="0" inkscape:current-layer="layer29" showguides="true">
        <sodipodi:guide position="178.3431,125.48759" orientation="0,-1" id="guide4" inkscape:locked="false" />
        <sodipodi:guide position="180.05671,290.50785" orientation="1,0" id="guide5" inkscape:locked="false" />
        <sodipodi:guide position="266.92117,78.95014" orientation="1,0" id="guide21" inkscape:locked="false" />
    </sodipodi:namedview>
    <defs id="defs1" />
    <g inkscape:label="Layer 1" inkscape:groupmode="layer" id="layer1">
        <path style="fill:#f5fbff;fill-opacity:1;stroke:#000000;stroke-width:0.7;stroke-linecap:round;stroke-miterlimit:2;stroke-dasharray:none;stroke-dashoffset:0" d="m 301.9535,345.95659 -77.61379,-17.03697 -60.57661,-27.44847 -22.71624,-53.00392 -7.57208,-90.86388 49.21851,-70.987397 83.29284,-40.699444 74.77426,17.983475 81.39983,35.966947 25.55576,73.826899 -6.62556,110.74034 -65.30917,36.91345 z" id="path20" sodipodi:nodetypes="ccccccccccccc" />
        <path style="fill:none;stroke:#000000;stroke-width:0.4;stroke-miterlimit:2" d="M 76.403487,722.83692 H 413.4777" id="path1" />
        <path style="fill:none;stroke:#000000;stroke-width:0.4;stroke-miterlimit:2" d="M 277.14993,769.27825 V 548.30738" id="path2" />
        <path class="axes-arrows" d="m 407.08153,258.92445 c 0,2.10801 3.71764,5.26982 4.95667,5.26982 -1.23903,0 -4.95667,3.16207 -4.95667,5.26994" id="path265" style="display:inline;fill:none;stroke:#000000;stroke-width:1.9;stroke-linecap:round;stroke-linejoin:round;stroke-dasharray:none" />
        <path style="fill:none;stroke:#000000;stroke-width:0.999998;stroke-dasharray:none" d="M 410.14836,264.19446 H 178.34666" id="path282" sodipodi:nodetypes="cc" />
        <path style="fill:none;stroke:#000000;stroke-width:0.999998;stroke-dasharray:none" d="M 255.57514,84.891812 V 194.33449 m 0,3.92525 v 39.2518 m 0,5.22461 v 62.03281" id="path284" sodipodi:nodetypes="cccccc" />
        <path class="axes-arrows" d="m 250.30526,88.164169 c 2.10801,0 5.26983,-3.717631 5.26983,-4.956666 0,1.239035 3.16207,4.956666 5.26995,4.956666" id="path288" style="display:inline;fill:none;stroke:#000000;stroke-width:1.9;stroke-linecap:round;stroke-linejoin:round;stroke-dasharray:none" sodipodi:nodetypes="ccc" />
        <g transform="matrix(0.01660039,0,0,-0.01660036,211.70681,284.62328)" id="g8" style="stroke-width:1.14696">
            <g id="g7" style="stroke-width:1.14696">
                <g id="g2-7" style="stroke-width:1.14696">
                    <path id="use1-1" d="m 94,250 q 0,69 10,131 10,62 23,107 13,45 37,88 24,43 38,67 14,24 42,52 28,28 33,34 5,6 25,21 h 13 4 q 14,0 14,-9 0,-3 -17,-21 -17,-18 -41,-53 -24,-35 -49,-86 -25,-51 -42,-138 -17,-87 -17,-193 0,-106 17,-192 17,-86 41,-139 24,-53 49,-86 25,-33 42,-53 17,-20 17,-21 0,-9 -15,-9 h -3 -13 l -28,24 Q 180,-141 137,-14 94,113 94,250 Z" style="stroke-width:1.14696" />
                </g>
                <g transform="translate(389)" id="g3-3" style="stroke-width:1.14696">
                    <path id="use2-3" d="m 96,585 q 56,81 153,81 48,0 96,-26 48,-26 78,-92 37,-83 37,-228 0,-155 -43,-237 -20,-42 -55,-67 -35,-25 -61,-31 -26,-6 -51,-7 -26,0 -52,6 -26,6 -61,32 -35,26 -55,67 -43,82 -43,237 0,174 57,265 z m 225,12 q -30,32 -71,32 -42,0 -72,-32 -25,-26 -33,-72 -8,-46 -8,-192 0,-158 8,-208 8,-50 36,-79 28,-30 69,-30 40,0 68,30 29,30 36,84 7,54 8,203 0,145 -8,191 -8,46 -33,73 z" style="stroke-width:1.14696" />
                </g>
                <g transform="translate(889)" id="g4-0" style="stroke-width:1.14696">
                    <path id="use3" d="m 78,35 q 0,0 0,25 0,25 16,43 16,18 43,18 28,0 50,-25 22,-25 23,-88 0,-35 -9,-68 -9,-33 -21,-57 -12,-24 -26,-41 -14,-17 -24,-27 -10,-10 -13,-9 -4,0 -13,9 -9,9 -9,13 0,4 11,16 11,12 25,30 14,18 26,50 12,32 16,73 V 9 L 172,8 Q 170,7 167,6 164,5 161,3 158,1 152,1 146,1 140,0 113,0 96,17 Z" style="stroke-width:1.14696" />
                </g>
                <g transform="translate(1333.7)" id="g5-6" style="stroke-width:1.14696">
                    <path id="use4" d="m 96,585 q 56,81 153,81 48,0 96,-26 48,-26 78,-92 37,-83 37,-228 0,-155 -43,-237 -20,-42 -55,-67 -35,-25 -61,-31 -26,-6 -51,-7 -26,0 -52,6 -26,6 -61,32 -35,26 -55,67 -43,82 -43,237 0,174 57,265 z m 225,12 q -30,32 -71,32 -42,0 -72,-32 -25,-26 -33,-72 -8,-46 -8,-192 0,-158 8,-208 8,-50 36,-79 28,-30 69,-30 40,0 68,30 29,30 36,84 7,54 8,203 0,145 -8,191 -8,46 -33,73 z" style="stroke-width:1.14696" />
                </g>
                <g transform="translate(1833.7)" id="g6-9" style="stroke-width:1.14696">
                    <path id="use5" d="m 60,749 4,1 q 5,0 10,0 h 12 l 28,-24 q 94,-85 137,-212 43,-127 43,-264 0,-68 -10,-131 -10,-63 -23,-107 -13,-44 -37,-88 -24,-44 -38,-67 -14,-23 -41,-51 -27,-28 -32,-33 -5,-5 -23,-19 -3,-3 -4,-4 H 74 q -8,0 -11,0 -3,0 -5,3 -2,3 -3,9 1,1 11,13 155,161 155,475 0,314 -155,475 -10,12 -11,13 0,8 5,11 z" style="stroke-width:1.14696" />
                </g>
            </g>
        </g>
        <g transform="matrix(0.01660039,0,0,-0.01660036,213.06347,253.14536)" id="g6-2" style="stroke-width:1.14696">
            <g id="g5-1" style="stroke-width:1.14696">
                <g id="g4-5" style="stroke-width:1.14696">
                    <g id="g2-8" style="stroke-width:1.14696">
                        <path id="use1-9" d="m 21,287 q 1,3 2,8 1,5 5,22 4,17 10,31 6,14 15,33 9,19 20,30 11,11 26,22 15,11 33,9 29,0 51,-12 22,-12 31,-22 9,-10 11,-20 2,-6 3,-6 1,0 8,7 48,52 111,52 h 3 q 48,0 72,-41 8,-19 8,-37 0,-30 -13,-48 -13,-18 -26,-23 -13,-5 -25,-4 -20,0 -32,11 -12,11 -12,29 0,48 56,64 -22,13 -36,13 -56,0 -103,-74 Q 229,315 224,298 219,281 190,165 156,25 151,16 138,-11 108,-11 95,-11 87,-5 79,1 76,7 q -3,6 -2,10 0,13 40,172 40,159 40,177 0,39 -26,39 -21,0 -36,-28 Q 77,349 68,316 59,283 57,280 55,278 41,278 H 27 q -6,6 -6,9 z" style="stroke-width:1.14696" />
                    </g>
                    <g transform="matrix(0.707,0,0,0.707,484,-150)" id="g3-33" style="stroke-width:1.14696">
                        <path id="use2-38" d="m 213,578 -13,-5 q -14,-5 -40,-10 -26,-5 -58,-7 H 83 v 46 h 19 q 47,2 87,15 40,13 56,24 16,11 28,22 2,3 12,3 9,0 17,-6 V 361 l 1,-300 q 7,-7 12,-9 5,-2 24,-4 19,-2 62,-2 h 26 V 0 H 416 Q 395,3 257,3 121,3 100,0 H 88 v 46 h 26 q 22,0 38,0 16,0 25,1 9,1 16,3 7,2 8,2 1,0 6,5 5,5 6,4 z" style="stroke-width:1.14696" />
                    </g>
                </g>
            </g>
        </g>
        <g transform="matrix(0.01660039,0,0,-0.01660036,379.35201,113.19675)" id="g6-8" style="stroke-width:1.14696">
            <g id="g5-3" style="stroke-width:1.14696">
                <g id="g4-1" style="stroke-width:1.14696">
                    <g id="g2-6" style="stroke-width:1.14696">
                        <path id="use1-3" d="m 287,628 q 0,7 -57,9 -24,0 -31,1 -7,1 -7,10 0,1 2,11 6,20 9,22 3,2 194,2 190,-1 203,-3 64,-11 107,-49 43,-38 44,-101 0,-77 -66,-141 -69,-68 -178,-86 -7,-1 -105,-2 H 307 L 277,182 Q 247,66 247,59 q 0,-4 1,-5 1,-1 7,-4 6,-3 17,-2 11,1 33,-2 h 31 q 6,-9 6,-11 Q 342,19 335,5 330,0 319,0 316,0 282,1 248,2 182,2 120,2 87,2 54,2 51,1 33,1 33,11 q 0,2 3,14 4,16 8,18 4,2 23,3 27,0 60,3 14,3 19,12 3,4 72,278 69,274 69,289 z m 358,-74 q 0,13 -2,21 -2,8 -9,22 -7,14 -25,22 -18,8 -49,16 -7,1 -80,2 -17,0 -35,0 -18,0 -29,-1 -11,-1 -12,0 -13,-1 -18,-9 -2,-6 -19,-77 -17,-71 -35,-138 -18,-67 -18,-68 0,-2 81,-2 h 12 23 q 112,0 160,50 27,27 41,79 14,52 14,83 z" style="stroke-width:1.14696" />
                    </g>
                    <g transform="matrix(0.707,0,0,0.707,675,-150)" id="g3-9" style="stroke-width:1.14696">
                        <path id="use2-9" d="m 109,429 q -27,0 -43,18 -16,18 -16,44 0,71 53,123 53,52 132,52 91,0 152,-56 61,-56 62,-145 0,-43 -20,-82 -20,-39 -48,-68 -28,-29 -80,-74 -36,-31 -100,-92 l -59,-56 76,-1 q 157,0 167,5 7,2 24,89 v 3 h 40 v -3 Q 448,183 436,95 424,7 421,3 V 0 H 50 v 19 12 q 0,7 6,15 6,8 30,35 29,32 50,56 9,10 34,37 25,27 34,37 9,10 29,33 20,23 28,34 8,11 23,30 15,19 21,32 6,13 15,29 9,16 13,32 4,16 7,30 3,14 3,33 0,63 -34,109 -34,46 -97,46 -33,0 -58,-17 -25,-17 -35,-33 -10,-16 -10,-19 0,-1 5,-1 18,0 37,-14 19,-14 19,-46 0,-25 -16,-42 -16,-17 -45,-18 z" style="stroke-width:1.14696" />
                    </g>
                </g>
            </g>
        </g>
        <g id="g9" transform="translate(130.2081,47.939443)">
            <path style="fill:none;stroke:#000000;stroke-width:0.8;stroke-miterlimit:2;stroke-dasharray:none" d="m 402.5534,378.1078 v -9.37844" id="path5" />
            <path style="fill:none;stroke:#000000;stroke-width:0.8;stroke-miterlimit:2;stroke-dasharray:none" d="m 190.15933,378.1078 v -9.37844" id="path5-6" />
            <path style="fill:none;stroke:#000000;stroke-width:3.5;stroke-miterlimit:2;stroke-dasharray:none" d="M 190.15933,373.41858 H 402.5534" id="path4" />
        </g>
        <g id="g14" transform="translate(47.190389,130.33536)">
            <path style="fill:none;stroke:#000000;stroke-width:0.800003;stroke-miterlimit:2;stroke-dasharray:none" d="m 259.37873,357.88335 v -9.37844" id="path12" />
            <path style="fill:none;stroke:#000000;stroke-width:0.800003;stroke-miterlimit:2;stroke-dasharray:none" d="m 189.8902,357.88335 v -9.37844" id="path13" />
            <path style="fill:none;stroke:#000000;stroke-width:3.5;stroke-miterlimit:2;stroke-dasharray:none" d="m 189.8902,353.19413 h 69.48853" id="path14" />
        </g>
        <g id="g17" transform="matrix(-0.66789048,-0.56042566,0.56042666,-0.6678893,184.46158,606.50821)" style="stroke-width:1.14696">
            <path style="fill:none;stroke:#000000;stroke-width:0.917573;stroke-miterlimit:2;stroke-dasharray:none" d="m 259.37873,357.88335 v -9.37844" id="path15" />
            <path style="fill:none;stroke:#000000;stroke-width:0.917573;stroke-miterlimit:2;stroke-dasharray:none" d="m 189.8902,357.88335 v -9.37844" id="path16" />
            <path style="fill:none;stroke:#000000;stroke-width:4.01437;stroke-miterlimit:2;stroke-dasharray:none" d="m 189.8902,353.19413 h 69.48853" id="path17" />
        </g>
        <g transform="matrix(0.01660039,0,0,-0.01660036,190.05256,219.40503)" id="g22" style="stroke-width:1.14696">
            <g id="g21" style="stroke-width:1.14696">
                <g id="g20" style="stroke-width:1.14696">
                    <g id="g18" style="stroke-width:1.14696">
                        <path id="path18" d="m 287,628 q 0,7 -57,9 -24,0 -31,1 -7,1 -7,10 0,1 2,11 6,20 9,22 3,2 194,2 190,-1 203,-3 64,-11 107,-49 43,-38 44,-101 0,-77 -66,-141 -69,-68 -178,-86 -7,-1 -105,-2 H 307 L 277,182 Q 247,66 247,59 q 0,-4 1,-5 1,-1 7,-4 6,-3 17,-2 11,1 33,-2 h 31 q 6,-9 6,-11 Q 342,19 335,5 330,0 319,0 316,0 282,1 248,2 182,2 120,2 87,2 54,2 51,1 33,1 33,11 q 0,2 3,14 4,16 8,18 4,2 23,3 27,0 60,3 14,3 19,12 3,4 72,278 69,274 69,289 z m 358,-74 q 0,13 -2,21 -2,8 -9,22 -7,14 -25,22 -18,8 -49,16 -7,1 -80,2 -17,0 -35,0 -18,0 -29,-1 -11,-1 -12,0 -13,-1 -18,-9 -2,-6 -19,-77 -17,-71 -35,-138 -18,-67 -18,-68 0,-2 81,-2 h 12 23 q 112,0 160,50 27,27 41,79 14,52 14,83 z" style="stroke-width:1.14696" />
                    </g>
                    <g transform="matrix(0.707,0,0,0.707,675,-150)" id="g19" style="stroke-width:1.14696">
                        <path id="path19" d="m 213,578 -13,-5 q -14,-5 -40,-10 -26,-5 -58,-7 H 83 v 46 h 19 q 47,2 87,15 40,13 56,24 16,11 28,22 2,3 12,3 9,0 17,-6 V 361 l 1,-300 q 7,-7 12,-9 5,-2 24,-4 19,-2 62,-2 h 26 V 0 H 416 Q 395,3 257,3 121,3 100,0 H 88 v 46 h 26 q 22,0 38,0 16,0 25,1 9,1 16,3 7,2 8,2 1,0 6,5 5,5 6,4 z" style="stroke-width:1.14696" />
                    </g>
                </g>
            </g>
        </g>
        <g transform="matrix(0.01660039,0,0,-0.01660036,316.70907,208.09224)" id="g6-6" style="stroke-width:1.14696">
            <g id="g5-8" style="stroke-width:1.14696">
                <g id="g4-7" style="stroke-width:1.14696">
                    <g id="g2-0" style="stroke-width:1.14696">
                        <path id="use1-7" d="m 21,287 q 1,3 2,8 1,5 5,22 4,17 10,31 6,14 15,33 9,19 20,30 11,11 26,22 15,11 33,9 29,0 51,-12 22,-12 31,-22 9,-10 11,-20 2,-6 3,-6 1,0 8,7 48,52 111,52 h 3 q 48,0 72,-41 8,-19 8,-37 0,-30 -13,-48 -13,-18 -26,-23 -13,-5 -25,-4 -20,0 -32,11 -12,11 -12,29 0,48 56,64 -22,13 -36,13 -56,0 -103,-74 Q 229,315 224,298 219,281 190,165 156,25 151,16 138,-11 108,-11 95,-11 87,-5 79,1 76,7 q -3,6 -2,10 0,13 40,172 40,159 40,177 0,39 -26,39 -21,0 -36,-28 Q 77,349 68,316 59,283 57,280 55,278 41,278 H 27 q -6,6 -6,9 z" style="stroke-width:1.14696" />
                    </g>
                    <g transform="matrix(0.707,0,0,0.707,484,-150)" id="g3-7" style="stroke-width:1.14696">
                        <path id="use2-7" d="m 109,429 q -27,0 -43,18 -16,18 -16,44 0,71 53,123 53,52 132,52 91,0 152,-56 61,-56 62,-145 0,-43 -20,-82 -20,-39 -48,-68 -28,-29 -80,-74 -36,-31 -100,-92 l -59,-56 76,-1 q 157,0 167,5 7,2 24,89 v 3 h 40 v -3 Q 448,183 436,95 424,7 421,3 V 0 H 50 v 19 12 q 0,7 6,15 6,8 30,35 29,32 50,56 9,10 34,37 25,27 34,37 9,10 29,33 20,23 28,34 8,11 23,30 15,19 21,32 6,13 15,29 9,16 13,32 4,16 7,30 3,14 3,33 0,63 -34,109 -34,46 -97,46 -33,0 -58,-17 -25,-17 -35,-33 -10,-16 -10,-19 0,-1 5,-1 18,0 37,-14 19,-14 19,-46 0,-25 -16,-42 -16,-17 -45,-18 z" style="stroke-width:1.14696" />
                    </g>
                </g>
            </g>
        </g>
        <g id="g10" transform="matrix(0.56042666,-0.6678893,0.66789048,0.56042566,-100.39797,181.92631)" style="stroke-width:1.14696">
            <path style="fill:none;stroke:#000000;stroke-width:0.91757;stroke-miterlimit:2;stroke-dasharray:none" d="m 402.5534,378.1078 v -9.37844" id="path3" />
            <path style="fill:none;stroke:#000000;stroke-width:0.91757;stroke-miterlimit:2;stroke-dasharray:none" d="m 190.15933,378.1078 v -9.37844" id="path6" />
            <path style="fill:none;stroke:#000000;stroke-width:4.01437;stroke-miterlimit:2;stroke-dasharray:none" d="M 190.15933,373.41858 H 402.5534" id="path7" />
        </g>
        <path id="rect10" style="fill:none;stroke:#000000;stroke-width:1.4;stroke-miterlimit:2;stroke-dasharray:none" d="m 241.72443,252.57246 11.81768,-14.08361 13.85071,11.622 -11.81768,14.08361 z" />
        <g transform="matrix(0.01904,0,0,-0.01904,288.35409,-16.772593)" id="g15">
            <g id="g14-4">
                <g id="g13">
                    <g transform="translate(1020)" id="g11">
                        <g id="g5">
                            <g id="g2">
                                <path id="use1" d="m 21,287 q 1,3 2,8 1,5 5,22 4,17 10,31 6,14 15,33 9,19 20,30 11,11 26,22 15,11 33,9 29,0 51,-12 22,-12 31,-22 9,-10 11,-20 2,-6 3,-6 1,0 8,7 48,52 111,52 h 3 q 48,0 72,-41 8,-19 8,-37 0,-30 -13,-48 -13,-18 -26,-23 -13,-5 -25,-4 -20,0 -32,11 -12,11 -12,29 0,48 56,64 -22,13 -36,13 -56,0 -103,-74 Q 229,315 224,298 219,281 190,165 156,25 151,16 138,-11 108,-11 95,-11 87,-5 79,1 76,7 q -3,6 -2,10 0,13 40,172 40,159 40,177 0,39 -26,39 -21,0 -36,-28 Q 77,349 68,316 59,283 57,280 55,278 41,278 H 27 q -6,6 -6,9 z" />
                            </g>
                            <g transform="matrix(0.707,0,0,0.707,484,353.6)" id="g3">
                                <path id="use2" d="m 109,429 q -27,0 -43,18 -16,18 -16,44 0,71 53,123 53,52 132,52 91,0 152,-56 61,-56 62,-145 0,-43 -20,-82 -20,-39 -48,-68 -28,-29 -80,-74 -36,-31 -100,-92 l -59,-56 76,-1 q 157,0 167,5 7,2 24,89 v 3 h 40 v -3 Q 448,183 436,95 424,7 421,3 V 0 H 50 v 19 12 q 0,7 6,15 6,8 30,35 29,32 50,56 9,10 34,37 25,27 34,37 9,10 29,33 20,23 28,34 8,11 23,30 15,19 21,32 6,13 15,29 9,16 13,32 4,16 7,30 3,14 3,33 0,63 -34,109 -34,46 -97,46 -33,0 -58,-17 -25,-17 -35,-33 -10,-16 -10,-19 0,-1 5,-1 18,0 37,-14 19,-14 19,-46 0,-25 -16,-42 -16,-17 -45,-18 z" />
                            </g>
                            <g transform="matrix(0.707,0,0,0.707,484,-297.3)" id="g4">
                                <path id="use3-8" d="m 213,578 -13,-5 q -14,-5 -40,-10 -26,-5 -58,-7 H 83 v 46 h 19 q 47,2 87,15 40,13 56,24 16,11 28,22 2,3 12,3 9,0 17,-6 V 361 l 1,-300 q 7,-7 12,-9 5,-2 24,-4 19,-2 62,-2 h 26 V 0 H 416 Q 395,3 257,3 121,3 100,0 H 88 v 46 h 26 q 22,0 38,0 16,0 25,1 9,1 16,3 7,2 8,2 1,0 6,5 5,5 6,4 z" />
                            </g>
                        </g>
                        <g transform="translate(1109.8)" id="g6">
                            <path id="use4-7" d="m 56,237 q 0,0 0,13 0,13 14,20 h 299 v 150 l 1,150 q 10,13 19,13 13,0 20,-15 V 270 h 298 q 15,-8 15,-20 0,-12 -15,-20 H 409 V -68 q -8,-14 -18,-14 h -2 -2 q -12,0 -18,14 V 230 H 70 q -14,7 -14,20 z" />
                        </g>
                        <g transform="translate(2110)" id="g10-7">
                            <g id="g7-3">
                                <path id="use5-6" d="m 21,287 q 1,3 2,8 1,5 5,22 4,17 10,31 6,14 15,33 9,19 20,30 11,11 26,22 15,11 33,9 29,0 51,-12 22,-12 31,-22 9,-10 11,-20 2,-6 3,-6 1,0 8,7 48,52 111,52 h 3 q 48,0 72,-41 8,-19 8,-37 0,-30 -13,-48 -13,-18 -26,-23 -13,-5 -25,-4 -20,0 -32,11 -12,11 -12,29 0,48 56,64 -22,13 -36,13 -56,0 -103,-74 Q 229,315 224,298 219,281 190,165 156,25 151,16 138,-11 108,-11 95,-11 87,-5 79,1 76,7 q -3,6 -2,10 0,13 40,172 40,159 40,177 0,39 -26,39 -21,0 -36,-28 Q 77,349 68,316 59,283 57,280 55,278 41,278 H 27 q -6,6 -6,9 z" />
                            </g>
                            <g transform="matrix(0.707,0,0,0.707,484,353.6)" id="g8-2">
                                <path id="use6" d="m 109,429 q -27,0 -43,18 -16,18 -16,44 0,71 53,123 53,52 132,52 91,0 152,-56 61,-56 62,-145 0,-43 -20,-82 -20,-39 -48,-68 -28,-29 -80,-74 -36,-31 -100,-92 l -59,-56 76,-1 q 157,0 167,5 7,2 24,89 v 3 h 40 v -3 Q 448,183 436,95 424,7 421,3 V 0 H 50 v 19 12 q 0,7 6,15 6,8 30,35 29,32 50,56 9,10 34,37 25,27 34,37 9,10 29,33 20,23 28,34 8,11 23,30 15,19 21,32 6,13 15,29 9,16 13,32 4,16 7,30 3,14 3,33 0,63 -34,109 -34,46 -97,46 -33,0 -58,-17 -25,-17 -35,-33 -10,-16 -10,-19 0,-1 5,-1 18,0 37,-14 19,-14 19,-46 0,-25 -16,-42 -16,-17 -45,-18 z" />
                            </g>
                            <g transform="matrix(0.707,0,0,0.707,484,-297.3)" id="g9-5">
                                <path id="use7" d="m 109,429 q -27,0 -43,18 -16,18 -16,44 0,71 53,123 53,52 132,52 91,0 152,-56 61,-56 62,-145 0,-43 -20,-82 -20,-39 -48,-68 -28,-29 -80,-74 -36,-31 -100,-92 l -59,-56 76,-1 q 157,0 167,5 7,2 24,89 v 3 h 40 v -3 Q 448,183 436,95 424,7 421,3 V 0 H 50 v 19 12 q 0,7 6,15 6,8 30,35 29,32 50,56 9,10 34,37 25,27 34,37 9,10 29,33 20,23 28,34 8,11 23,30 15,19 21,32 6,13 15,29 9,16 13,32 4,16 7,30 3,14 3,33 0,63 -34,109 -34,46 -97,46 -33,0 -58,-17 -25,-17 -35,-33 -10,-16 -10,-19 0,-1 5,-1 18,0 37,-14 19,-14 19,-46 0,-25 -16,-42 -16,-17 -45,-18 z" />
                            </g>
                        </g>
                    </g>
                    <g transform="translate(0,128.9)" id="g12">
                        <path id="use10" d="m 1001,1150 q 16,0 19,-18 0,-5 -279,-888 L 460,-643 q -7,-7 -24,-7 h -12 q -1,3 -1,5 0,2 -2,5 -2,3 -2,9 0,6 -4,14 -4,8 -7,23 -3,15 -9,34 -6,19 -14,48 -8,29 -18,64 -10,35 -24,84 -14,49 -31,105 l -109,378 -65,-78 -27,26 101,121 52,60 208,-722 511,1614 q 5,10 18,10 z" />
                    </g>
                    <rect width="2997.6001" height="60" x="1020" y="1218.8" id="rect11" />
                </g>
            </g>
        </g>
        <path style="fill:none;stroke:#000000;stroke-width:1.3;stroke-linecap:round;stroke-miterlimit:2;stroke-dasharray:2.6, 2.6;stroke-dashoffset:0" d="M 209.16442,225.25113 374.6064,122.33855" id="path11" />
        <path style="display:inline;fill:#f5fbff;fill-opacity:1;stroke:#000000;stroke-width:0.699999;stroke-miterlimit:2;stroke-dasharray:none;stroke-dashoffset:0" d="m 26.401455,197.22454 c -3.641061,1.20909 -7.010099,3.68002 -9.261725,6.9469 -3.351098,4.86172 -3.341648,10.88905 -1.07736,15.27846 2.425316,4.702 7.037874,8.02428 12.470042,9.00875 2.882391,0.52235 6.129059,0.1498 9.032439,-1.31649 4.853721,-2.45102 7.88826,-7.90758 8.051849,-12.8408 0.117232,-3.51904 -0.755749,-6.8965 -2.565313,-9.61791 -2.424484,-3.64619 -5.942266,-6.55799 -10.158425,-8.12534 -0.763673,-0.28401 -1.575626,-0.46877 -2.363545,-0.70332" id="path4-00" sodipodi:nodetypes="csssssssc" />
        <path style="fill:#f5fbff;fill-opacity:1;stroke:#000000;stroke-width:0.7;stroke-linecap:round;stroke-miterlimit:2;stroke-dasharray:none;stroke-dashoffset:0" d="M 104.34322,232.52119 H 83.68644 L 66.207627,218.75 l 3.707627,-23.83474 15.88983,-9.00424 25.423736,14.30085 z" id="path21" />
        <g transform="matrix(0.0102032,-0.00634581,-0.00634582,-0.01020317,277.83542,168.16818)" id="g37" style="stroke-width:1.58461">
            <g id="g36" style="stroke-width:1.58461">
                <g id="g35" style="stroke-width:1.58461">
                    <g transform="translate(1020)" id="g33" style="stroke-width:1.58461">
                        <g id="g27" style="stroke-width:1.58461">
                            <g id="g23" style="stroke-width:1.58461">
                                <path id="path23" d="m 21,287 q 1,3 2,8 1,5 5,22 4,17 10,31 6,14 15,33 9,19 20,30 11,11 26,22 15,11 33,9 29,0 51,-12 22,-12 31,-22 9,-10 11,-20 2,-6 3,-6 1,0 8,7 48,52 111,52 h 3 q 48,0 72,-41 8,-19 8,-37 0,-30 -13,-48 -13,-18 -26,-23 -13,-5 -25,-4 -20,0 -32,11 -12,11 -12,29 0,48 56,64 -22,13 -36,13 -56,0 -103,-74 Q 229,315 224,298 219,281 190,165 156,25 151,16 138,-11 108,-11 95,-11 87,-5 79,1 76,7 q -3,6 -2,10 0,13 40,172 40,159 40,177 0,39 -26,39 -21,0 -36,-28 Q 77,349 68,316 59,283 57,280 55,278 41,278 H 27 q -6,6 -6,9 z" style="stroke-width:1.58461" />
                            </g>
                            <g transform="matrix(0.707,0,0,0.707,484,353.6)" id="g25" style="stroke-width:1.58461">
                                <path id="path25" d="m 109,429 q -27,0 -43,18 -16,18 -16,44 0,71 53,123 53,52 132,52 91,0 152,-56 61,-56 62,-145 0,-43 -20,-82 -20,-39 -48,-68 -28,-29 -80,-74 -36,-31 -100,-92 l -59,-56 76,-1 q 157,0 167,5 7,2 24,89 v 3 h 40 v -3 Q 448,183 436,95 424,7 421,3 V 0 H 50 v 19 12 q 0,7 6,15 6,8 30,35 29,32 50,56 9,10 34,37 25,27 34,37 9,10 29,33 20,23 28,34 8,11 23,30 15,19 21,32 6,13 15,29 9,16 13,32 4,16 7,30 3,14 3,33 0,63 -34,109 -34,46 -97,46 -33,0 -58,-17 -25,-17 -35,-33 -10,-16 -10,-19 0,-1 5,-1 18,0 37,-14 19,-14 19,-46 0,-25 -16,-42 -16,-17 -45,-18 z" style="stroke-width:1.58461" />
                            </g>
                            <g transform="matrix(0.707,0,0,0.707,484,-297.3)" id="g26" style="stroke-width:1.58461">
                                <path id="path26" d="m 213,578 -13,-5 q -14,-5 -40,-10 -26,-5 -58,-7 H 83 v 46 h 19 q 47,2 87,15 40,13 56,24 16,11 28,22 2,3 12,3 9,0 17,-6 V 361 l 1,-300 q 7,-7 12,-9 5,-2 24,-4 19,-2 62,-2 h 26 V 0 H 416 Q 395,3 257,3 121,3 100,0 H 88 v 46 h 26 q 22,0 38,0 16,0 25,1 9,1 16,3 7,2 8,2 1,0 6,5 5,5 6,4 z" style="stroke-width:1.58461" />
                            </g>
                        </g>
                        <g transform="translate(1109.8)" id="g28" style="stroke-width:1.58461">
                            <path id="path27" d="m 56,237 q 0,0 0,13 0,13 14,20 h 299 v 150 l 1,150 q 10,13 19,13 13,0 20,-15 V 270 h 298 q 15,-8 15,-20 0,-12 -15,-20 H 409 V -68 q -8,-14 -18,-14 h -2 -2 q -12,0 -18,14 V 230 H 70 q -14,7 -14,20 z" style="stroke-width:1.58461" />
                        </g>
                        <g transform="translate(2110)" id="g32" style="stroke-width:1.58461">
                            <g id="g29" style="stroke-width:1.58461">
                                <path id="path28" d="m 21,287 q 1,3 2,8 1,5 5,22 4,17 10,31 6,14 15,33 9,19 20,30 11,11 26,22 15,11 33,9 29,0 51,-12 22,-12 31,-22 9,-10 11,-20 2,-6 3,-6 1,0 8,7 48,52 111,52 h 3 q 48,0 72,-41 8,-19 8,-37 0,-30 -13,-48 -13,-18 -26,-23 -13,-5 -25,-4 -20,0 -32,11 -12,11 -12,29 0,48 56,64 -22,13 -36,13 -56,0 -103,-74 Q 229,315 224,298 219,281 190,165 156,25 151,16 138,-11 108,-11 95,-11 87,-5 79,1 76,7 q -3,6 -2,10 0,13 40,172 40,159 40,177 0,39 -26,39 -21,0 -36,-28 Q 77,349 68,316 59,283 57,280 55,278 41,278 H 27 q -6,6 -6,9 z" style="stroke-width:1.58461" />
                            </g>
                            <g transform="matrix(0.707,0,0,0.707,484,353.6)" id="g30" style="stroke-width:1.58461">
                                <path id="path29" d="m 109,429 q -27,0 -43,18 -16,18 -16,44 0,71 53,123 53,52 132,52 91,0 152,-56 61,-56 62,-145 0,-43 -20,-82 -20,-39 -48,-68 -28,-29 -80,-74 -36,-31 -100,-92 l -59,-56 76,-1 q 157,0 167,5 7,2 24,89 v 3 h 40 v -3 Q 448,183 436,95 424,7 421,3 V 0 H 50 v 19 12 q 0,7 6,15 6,8 30,35 29,32 50,56 9,10 34,37 25,27 34,37 9,10 29,33 20,23 28,34 8,11 23,30 15,19 21,32 6,13 15,29 9,16 13,32 4,16 7,30 3,14 3,33 0,63 -34,109 -34,46 -97,46 -33,0 -58,-17 -25,-17 -35,-33 -10,-16 -10,-19 0,-1 5,-1 18,0 37,-14 19,-14 19,-46 0,-25 -16,-42 -16,-17 -45,-18 z" style="stroke-width:1.58461" />
                            </g>
                            <g transform="matrix(0.707,0,0,0.707,484,-297.3)" id="g31" style="stroke-width:1.58461">
                                <path id="path30" d="m 109,429 q -27,0 -43,18 -16,18 -16,44 0,71 53,123 53,52 132,52 91,0 152,-56 61,-56 62,-145 0,-43 -20,-82 -20,-39 -48,-68 -28,-29 -80,-74 -36,-31 -100,-92 l -59,-56 76,-1 q 157,0 167,5 7,2 24,89 v 3 h 40 v -3 Q 448,183 436,95 424,7 421,3 V 0 H 50 v 19 12 q 0,7 6,15 6,8 30,35 29,32 50,56 9,10 34,37 25,27 34,37 9,10 29,33 20,23 28,34 8,11 23,30 15,19 21,32 6,13 15,29 9,16 13,32 4,16 7,30 3,14 3,33 0,63 -34,109 -34,46 -97,46 -33,0 -58,-17 -25,-17 -35,-33 -10,-16 -10,-19 0,-1 5,-1 18,0 37,-14 19,-14 19,-46 0,-25 -16,-42 -16,-17 -45,-18 z" style="stroke-width:1.58461" />
                            </g>
                        </g>
                    </g>
                    <g transform="translate(0,128.9)" id="g34" style="stroke-width:1.58461">
                        <path id="path33" d="m 1001,1150 q 16,0 19,-18 0,-5 -279,-888 L 460,-643 q -7,-7 -24,-7 h -12 q -1,3 -1,5 0,2 -2,5 -2,3 -2,9 0,6 -4,14 -4,8 -7,23 -3,15 -9,34 -6,19 -14,48 -8,29 -18,64 -10,35 -24,84 -14,49 -31,105 l -109,378 -65,-78 -27,26 101,121 52,60 208,-722 511,1614 q 5,10 18,10 z" style="stroke-width:1.58461" />
                    </g>
                    <rect width="2997.6001" height="60" x="1020" y="1218.8" id="rect34" style="stroke-width:1.58461" />
                </g>
            </g>
        </g>
        <path class="axes-arrows" d="m 1026.4532,268.4679 c 0,2.41781 4.264,6.04429 5.6851,6.04429 -1.4211,0 -5.6851,3.62677 -5.6851,6.04443" id="path37" style="display:inline;fill:none;stroke:#000000;stroke-width:1.9;stroke-linecap:round;stroke-linejoin:round;stroke-dasharray:none" />
        <path style="fill:none;stroke:#000000;stroke-width:1;stroke-dasharray:none" d="M 1029.9707,274.51241 H 764.10317" id="path38" sodipodi:nodetypes="cc" />
        <path style="fill:none;stroke:#000000;stroke-width:1;stroke-dasharray:none" d="M 852.68124,68.858865 V 194.38559 m 0,4.50212 v 45.02037 m 0,5.99243 v 71.14935" id="path39" sodipodi:nodetypes="cccccc" />
        <path class="axes-arrows" d="m 846.63689,72.612138 c 2.41781,0 6.04429,-4.263986 6.04429,-5.685113 0,1.421127 3.62677,5.685113 6.04443,5.685113" id="path40" style="display:inline;fill:none;stroke:#000000;stroke-width:1.9;stroke-linecap:round;stroke-linejoin:round;stroke-dasharray:none" sodipodi:nodetypes="ccc" />
        <g transform="matrix(0.01904,0,0,-0.01904,802.36597,297.94351)" id="g47">
            <g id="g46">
                <g id="g41">
                    <path id="path41" d="m 94,250 q 0,69 10,131 10,62 23,107 13,45 37,88 24,43 38,67 14,24 42,52 28,28 33,34 5,6 25,21 h 13 4 q 14,0 14,-9 0,-3 -17,-21 -17,-18 -41,-53 -24,-35 -49,-86 -25,-51 -42,-138 -17,-87 -17,-193 0,-106 17,-192 17,-86 41,-139 24,-53 49,-86 25,-33 42,-53 17,-20 17,-21 0,-9 -15,-9 h -3 -13 l -28,24 Q 180,-141 137,-14 94,113 94,250 Z" />
                </g>
                <g transform="translate(389)" id="g42">
                    <path id="path42" d="m 96,585 q 56,81 153,81 48,0 96,-26 48,-26 78,-92 37,-83 37,-228 0,-155 -43,-237 -20,-42 -55,-67 -35,-25 -61,-31 -26,-6 -51,-7 -26,0 -52,6 -26,6 -61,32 -35,26 -55,67 -43,82 -43,237 0,174 57,265 z m 225,12 q -30,32 -71,32 -42,0 -72,-32 -25,-26 -33,-72 -8,-46 -8,-192 0,-158 8,-208 8,-50 36,-79 28,-30 69,-30 40,0 68,30 29,30 36,84 7,54 8,203 0,145 -8,191 -8,46 -33,73 z" />
                </g>
                <g transform="translate(889)" id="g43">
                    <path id="path43" d="m 78,35 q 0,0 0,25 0,25 16,43 16,18 43,18 28,0 50,-25 22,-25 23,-88 0,-35 -9,-68 -9,-33 -21,-57 -12,-24 -26,-41 -14,-17 -24,-27 -10,-10 -13,-9 -4,0 -13,9 -9,9 -9,13 0,4 11,16 11,12 25,30 14,18 26,50 12,32 16,73 V 9 L 172,8 Q 170,7 167,6 164,5 161,3 158,1 152,1 146,1 140,0 113,0 96,17 Z" />
                </g>
                <g transform="translate(1333.7)" id="g44">
                    <path id="path44" d="m 96,585 q 56,81 153,81 48,0 96,-26 48,-26 78,-92 37,-83 37,-228 0,-155 -43,-237 -20,-42 -55,-67 -35,-25 -61,-31 -26,-6 -51,-7 -26,0 -52,6 -26,6 -61,32 -35,26 -55,67 -43,82 -43,237 0,174 57,265 z m 225,12 q -30,32 -71,32 -42,0 -72,-32 -25,-26 -33,-72 -8,-46 -8,-192 0,-158 8,-208 8,-50 36,-79 28,-30 69,-30 40,0 68,30 29,30 36,84 7,54 8,203 0,145 -8,191 -8,46 -33,73 z" />
                </g>
                <g transform="translate(1833.7)" id="g45">
                    <path id="path45" d="m 60,749 4,1 q 5,0 10,0 h 12 l 28,-24 q 94,-85 137,-212 43,-127 43,-264 0,-68 -10,-131 -10,-63 -23,-107 -13,-44 -37,-88 -24,-44 -38,-67 -14,-23 -41,-51 -27,-28 -32,-33 -5,-5 -23,-19 -3,-3 -4,-4 H 74 q -8,0 -11,0 -3,0 -5,3 -2,3 -3,9 1,1 11,13 155,161 155,475 0,314 -155,475 -10,12 -11,13 0,8 5,11 z" />
                </g>
            </g>
        </g>
        <g transform="matrix(0.01904,0,0,-0.01904,910.04038,253.64582)" id="g52" style="display:inline">
            <g id="g51">
                <g id="g50">
                    <g id="g48">
                        <path id="path47" d="m 35,200 q 0,102 39,215 39,113 106,195 67,82 139,94 1,0 8,0 7,0 12,1 54,-4 84,-49 39,-60 39,-161 Q 462,380 417,261 372,142 302,66 232,-10 168,-10 h -7 q -36,0 -62,20 -26,20 -39,53 -13,33 -19,67 -6,34 -6,70 z m 348,366 q 0,102 -53,102 -36,0 -70,-45 -34,-45 -56,-102 -22,-57 -34,-100 -12,-43 -13,-50 49,-1 97,-1 l 97,1 q 1,1 8,33 7,32 16,80 9,48 8,82 z M 113,132 q 0,-106 53,-106 15,0 32,10 17,10 41,38 24,28 48,87 24,59 48,146 l 5,17 H 145 q 0,-3 -9,-38 -9,-35 -16,-78 -7,-43 -7,-76 z" />
                    </g>
                    <g transform="matrix(0.707,0,0,0.707,502,-150)" id="g49">
                        <path id="path48" d="m 109,429 q -27,0 -43,18 -16,18 -16,44 0,71 53,123 53,52 132,52 91,0 152,-56 61,-56 62,-145 0,-43 -20,-82 -20,-39 -48,-68 -28,-29 -80,-74 -36,-31 -100,-92 l -59,-56 76,-1 q 157,0 167,5 7,2 24,89 v 3 h 40 v -3 Q 448,183 436,95 424,7 421,3 V 0 H 50 v 19 12 q 0,7 6,15 6,8 30,35 29,32 50,56 9,10 34,37 25,27 34,37 9,10 29,33 20,23 28,34 8,11 23,30 15,19 21,32 6,13 15,29 9,16 13,32 4,16 7,30 3,14 3,33 0,63 -34,109 -34,46 -97,46 -33,0 -58,-17 -25,-17 -35,-33 -10,-16 -10,-19 0,-1 5,-1 18,0 37,-14 19,-14 19,-46 0,-25 -16,-42 -16,-17 -45,-18 z" />
                    </g>
                </g>
            </g>
        </g>
        <g transform="matrix(0.01904,0,0,-0.01904,803.922,261.83949)" id="g57">
            <g id="g56">
                <g id="g55">
                    <g id="g53">
                        <path id="path52" d="m 21,287 q 1,3 2,8 1,5 5,22 4,17 10,31 6,14 15,33 9,19 20,30 11,11 26,22 15,11 33,9 29,0 51,-12 22,-12 31,-22 9,-10 11,-20 2,-6 3,-6 1,0 8,7 48,52 111,52 h 3 q 48,0 72,-41 8,-19 8,-37 0,-30 -13,-48 -13,-18 -26,-23 -13,-5 -25,-4 -20,0 -32,11 -12,11 -12,29 0,48 56,64 -22,13 -36,13 -56,0 -103,-74 Q 229,315 224,298 219,281 190,165 156,25 151,16 138,-11 108,-11 95,-11 87,-5 79,1 76,7 q -3,6 -2,10 0,13 40,172 40,159 40,177 0,39 -26,39 -21,0 -36,-28 Q 77,349 68,316 59,283 57,280 55,278 41,278 H 27 q -6,6 -6,9 z" />
                    </g>
                    <g transform="matrix(0.707,0,0,0.707,484,-150)" id="g54">
                        <path id="path53" d="m 213,578 -13,-5 q -14,-5 -40,-10 -26,-5 -58,-7 H 83 v 46 h 19 q 47,2 87,15 40,13 56,24 16,11 28,22 2,3 12,3 9,0 17,-6 V 361 l 1,-300 q 7,-7 12,-9 5,-2 24,-4 19,-2 62,-2 h 26 V 0 H 416 Q 395,3 257,3 121,3 100,0 H 88 v 46 h 26 q 22,0 38,0 16,0 25,1 9,1 16,3 7,2 8,2 1,0 6,5 5,5 6,4 z" />
                    </g>
                </g>
            </g>
        </g>
        <g transform="matrix(0.01904,0,0,-0.01904,994.6485,101.32359)" id="g62">
            <g id="g61">
                <g id="g60">
                    <g id="g58">
                        <path id="path57" d="m 287,628 q 0,7 -57,9 -24,0 -31,1 -7,1 -7,10 0,1 2,11 6,20 9,22 3,2 194,2 190,-1 203,-3 64,-11 107,-49 43,-38 44,-101 0,-77 -66,-141 -69,-68 -178,-86 -7,-1 -105,-2 H 307 L 277,182 Q 247,66 247,59 q 0,-4 1,-5 1,-1 7,-4 6,-3 17,-2 11,1 33,-2 h 31 q 6,-9 6,-11 Q 342,19 335,5 330,0 319,0 316,0 282,1 248,2 182,2 120,2 87,2 54,2 51,1 33,1 33,11 q 0,2 3,14 4,16 8,18 4,2 23,3 27,0 60,3 14,3 19,12 3,4 72,278 69,274 69,289 z m 358,-74 q 0,13 -2,21 -2,8 -9,22 -7,14 -25,22 -18,8 -49,16 -7,1 -80,2 -17,0 -35,0 -18,0 -29,-1 -11,-1 -12,0 -13,-1 -18,-9 -2,-6 -19,-77 -17,-71 -35,-138 -18,-67 -18,-68 0,-2 81,-2 h 12 23 q 112,0 160,50 27,27 41,79 14,52 14,83 z" />
                    </g>
                    <g transform="matrix(0.707,0,0,0.707,675,-150)" id="g59">
                        <path id="path58" d="m 109,429 q -27,0 -43,18 -16,18 -16,44 0,71 53,123 53,52 132,52 91,0 152,-56 61,-56 62,-145 0,-43 -20,-82 -20,-39 -48,-68 -28,-29 -80,-74 -36,-31 -100,-92 l -59,-56 76,-1 q 157,0 167,5 7,2 24,89 v 3 h 40 v -3 Q 448,183 436,95 424,7 421,3 V 0 H 50 v 19 12 q 0,7 6,15 6,8 30,35 29,32 50,56 9,10 34,37 25,27 34,37 9,10 29,33 20,23 28,34 8,11 23,30 15,19 21,32 6,13 15,29 9,16 13,32 4,16 7,30 3,14 3,33 0,63 -34,109 -34,46 -97,46 -33,0 -58,-17 -25,-17 -35,-33 -10,-16 -10,-19 0,-1 5,-1 18,0 37,-14 19,-14 19,-46 0,-25 -16,-42 -16,-17 -45,-18 z" />
                    </g>
                </g>
            </g>
        </g>
        <g id="g64" transform="rotate(-140,506.96677,193.23507)">
            <path style="fill:none;stroke:#000000;stroke-width:0.800003;stroke-miterlimit:2;stroke-dasharray:none" d="m 259.37873,357.88335 v -9.37844" id="path62" />
            <path style="fill:none;stroke:#000000;stroke-width:0.800003;stroke-miterlimit:2;stroke-dasharray:none" d="m 189.8902,357.88335 v -9.37844" id="path63" />
            <path style="fill:none;stroke:#000000;stroke-width:3.5;stroke-miterlimit:2;stroke-dasharray:none" d="m 189.8902,353.19413 h 69.48853" id="path64" />
        </g>
        <g transform="matrix(0.01904,0,0,-0.01904,777.52938,223.14057)" id="g69">
            <g id="g68">
                <g id="g67">
                    <g id="g65">
                        <path id="path65" d="m 287,628 q 0,7 -57,9 -24,0 -31,1 -7,1 -7,10 0,1 2,11 6,20 9,22 3,2 194,2 190,-1 203,-3 64,-11 107,-49 43,-38 44,-101 0,-77 -66,-141 -69,-68 -178,-86 -7,-1 -105,-2 H 307 L 277,182 Q 247,66 247,59 q 0,-4 1,-5 1,-1 7,-4 6,-3 17,-2 11,1 33,-2 h 31 q 6,-9 6,-11 Q 342,19 335,5 330,0 319,0 316,0 282,1 248,2 182,2 120,2 87,2 54,2 51,1 33,1 33,11 q 0,2 3,14 4,16 8,18 4,2 23,3 27,0 60,3 14,3 19,12 3,4 72,278 69,274 69,289 z m 358,-74 q 0,13 -2,21 -2,8 -9,22 -7,14 -25,22 -18,8 -49,16 -7,1 -80,2 -17,0 -35,0 -18,0 -29,-1 -11,-1 -12,0 -13,-1 -18,-9 -2,-6 -19,-77 -17,-71 -35,-138 -18,-67 -18,-68 0,-2 81,-2 h 12 23 q 112,0 160,50 27,27 41,79 14,52 14,83 z" />
                    </g>
                    <g transform="matrix(0.707,0,0,0.707,675,-150)" id="g66">
                        <path id="path66" d="m 213,578 -13,-5 q -14,-5 -40,-10 -26,-5 -58,-7 H 83 v 46 h 19 q 47,2 87,15 40,13 56,24 16,11 28,22 2,3 12,3 9,0 17,-6 V 361 l 1,-300 q 7,-7 12,-9 5,-2 24,-4 19,-2 62,-2 h 26 V 0 H 416 Q 395,3 257,3 121,3 100,0 H 88 v 46 h 26 q 22,0 38,0 16,0 25,1 9,1 16,3 7,2 8,2 1,0 6,5 5,5 6,4 z" />
                    </g>
                </g>
            </g>
        </g>
        <path style="fill:none;stroke:#000000;stroke-width:1;stroke-miterlimit:2;stroke-dasharray:none" id="path69" sodipodi:type="arc" sodipodi:cx="852.68115" sodipodi:cy="274.51221" sodipodi:rx="44.486126" sodipodi:ry="44.486126" sodipodi:start="5.4608445" sodipodi:end="0.00059110384" sodipodi:arc-type="arc" d="m 882.95431,241.91541 a 44.486126,44.486126 0 0 1 14.21296,32.62309" sodipodi:open="true" />
        <g transform="matrix(0.01904,0,0,-0.01904,922.79948,210.16522)" id="g74">
            <g id="g73">
                <g id="g72">
                    <g id="g70">
                        <path id="path70" d="m 21,287 q 1,3 2,8 1,5 5,22 4,17 10,31 6,14 15,33 9,19 20,30 11,11 26,22 15,11 33,9 29,0 51,-12 22,-12 31,-22 9,-10 11,-20 2,-6 3,-6 1,0 8,7 48,52 111,52 h 3 q 48,0 72,-41 8,-19 8,-37 0,-30 -13,-48 -13,-18 -26,-23 -13,-5 -25,-4 -20,0 -32,11 -12,11 -12,29 0,48 56,64 -22,13 -36,13 -56,0 -103,-74 Q 229,315 224,298 219,281 190,165 156,25 151,16 138,-11 108,-11 95,-11 87,-5 79,1 76,7 q -3,6 -2,10 0,13 40,172 40,159 40,177 0,39 -26,39 -21,0 -36,-28 Q 77,349 68,316 59,283 57,280 55,278 41,278 H 27 q -6,6 -6,9 z" />
                    </g>
                    <g transform="matrix(0.707,0,0,0.707,484,-150)" id="g71">
                        <path id="path71" d="m 109,429 q -27,0 -43,18 -16,18 -16,44 0,71 53,123 53,52 132,52 91,0 152,-56 61,-56 62,-145 0,-43 -20,-82 -20,-39 -48,-68 -28,-29 -80,-74 -36,-31 -100,-92 l -59,-56 76,-1 q 157,0 167,5 7,2 24,89 v 3 h 40 v -3 Q 448,183 436,95 424,7 421,3 V 0 H 50 v 19 12 q 0,7 6,15 6,8 30,35 29,32 50,56 9,10 34,37 25,27 34,37 9,10 29,33 20,23 28,34 8,11 23,30 15,19 21,32 6,13 15,29 9,16 13,32 4,16 7,30 3,14 3,33 0,63 -34,109 -34,46 -97,46 -33,0 -58,-17 -25,-17 -35,-33 -10,-16 -10,-19 0,-1 5,-1 18,0 37,-14 19,-14 19,-46 0,-25 -16,-42 -16,-17 -45,-18 z" />
                    </g>
                </g>
            </g>
        </g>
        <path id="path74" style="stroke-width:0.999999;stroke-miterlimit:2" inkscape:transform-center-y="0.6886622" d="m 889.96256,242.98971 -5.69655,6.34851 -2.64969,-8.1076 z" inkscape:transform-center-x="-0.58912" />
        <g id="g77" transform="rotate(-50,415.36755,-386.42597)">
            <path style="fill:none;stroke:#000000;stroke-width:0.8;stroke-miterlimit:2;stroke-dasharray:none" d="m 402.5534,378.1078 v -9.37844" id="path75" />
            <path style="fill:none;stroke:#000000;stroke-width:0.8;stroke-miterlimit:2;stroke-dasharray:none" d="m 190.15933,378.1078 v -9.37844" id="path76" />
            <path style="fill:none;stroke:#000000;stroke-width:3.5;stroke-miterlimit:2;stroke-dasharray:none" d="M 190.15933,373.41858 H 402.5534" id="path77" />
        </g>
        <path id="path78" style="fill:none;stroke:#000000;stroke-width:1.4;stroke-miterlimit:2;stroke-dasharray:none" d="m 836.79501,261.1824 13.55442,-16.15338 15.88623,13.33 -13.55442,16.15339 z" />
        <path style="fill:none;stroke:#000000;stroke-width:1.3;stroke-linecap:round;stroke-miterlimit:2;stroke-dasharray:2.6, 2.6;stroke-dashoffset:0" d="M 799.44994,229.84584 989.20547,111.8089" id="path79" />
        <g transform="matrix(0.01097058,-0.00682309,-0.00682309,-0.01097058,878.20498,164.56223)" id="g93" style="stroke-width:1.47376">
            <g id="g92" style="stroke-width:1.47376">
                <g id="g91" style="stroke-width:1.47376">
                    <g transform="translate(1020)" id="g89" style="stroke-width:1.47376">
                        <g id="g83" style="stroke-width:1.47376">
                            <g id="g80" style="stroke-width:1.47376">
                                <path id="path80" d="m 21,287 q 1,3 2,8 1,5 5,22 4,17 10,31 6,14 15,33 9,19 20,30 11,11 26,22 15,11 33,9 29,0 51,-12 22,-12 31,-22 9,-10 11,-20 2,-6 3,-6 1,0 8,7 48,52 111,52 h 3 q 48,0 72,-41 8,-19 8,-37 0,-30 -13,-48 -13,-18 -26,-23 -13,-5 -25,-4 -20,0 -32,11 -12,11 -12,29 0,48 56,64 -22,13 -36,13 -56,0 -103,-74 Q 229,315 224,298 219,281 190,165 156,25 151,16 138,-11 108,-11 95,-11 87,-5 79,1 76,7 q -3,6 -2,10 0,13 40,172 40,159 40,177 0,39 -26,39 -21,0 -36,-28 Q 77,349 68,316 59,283 57,280 55,278 41,278 H 27 q -6,6 -6,9 z" style="stroke-width:1.47376" />
                            </g>
                            <g transform="matrix(0.707,0,0,0.707,484,353.6)" id="g81" style="stroke-width:1.47376">
                                <path id="path81" d="m 109,429 q -27,0 -43,18 -16,18 -16,44 0,71 53,123 53,52 132,52 91,0 152,-56 61,-56 62,-145 0,-43 -20,-82 -20,-39 -48,-68 -28,-29 -80,-74 -36,-31 -100,-92 l -59,-56 76,-1 q 157,0 167,5 7,2 24,89 v 3 h 40 v -3 Q 448,183 436,95 424,7 421,3 V 0 H 50 v 19 12 q 0,7 6,15 6,8 30,35 29,32 50,56 9,10 34,37 25,27 34,37 9,10 29,33 20,23 28,34 8,11 23,30 15,19 21,32 6,13 15,29 9,16 13,32 4,16 7,30 3,14 3,33 0,63 -34,109 -34,46 -97,46 -33,0 -58,-17 -25,-17 -35,-33 -10,-16 -10,-19 0,-1 5,-1 18,0 37,-14 19,-14 19,-46 0,-25 -16,-42 -16,-17 -45,-18 z" style="stroke-width:1.47376" />
                            </g>
                            <g transform="matrix(0.707,0,0,0.707,484,-297.3)" id="g82" style="stroke-width:1.47376">
                                <path id="path82" d="m 213,578 -13,-5 q -14,-5 -40,-10 -26,-5 -58,-7 H 83 v 46 h 19 q 47,2 87,15 40,13 56,24 16,11 28,22 2,3 12,3 9,0 17,-6 V 361 l 1,-300 q 7,-7 12,-9 5,-2 24,-4 19,-2 62,-2 h 26 V 0 H 416 Q 395,3 257,3 121,3 100,0 H 88 v 46 h 26 q 22,0 38,0 16,0 25,1 9,1 16,3 7,2 8,2 1,0 6,5 5,5 6,4 z" style="stroke-width:1.47376" />
                            </g>
                        </g>
                        <g transform="translate(1109.8)" id="g84" style="stroke-width:1.47376">
                            <path id="path83" d="m 56,237 q 0,0 0,13 0,13 14,20 h 299 v 150 l 1,150 q 10,13 19,13 13,0 20,-15 V 270 h 298 q 15,-8 15,-20 0,-12 -15,-20 H 409 V -68 q -8,-14 -18,-14 h -2 -2 q -12,0 -18,14 V 230 H 70 q -14,7 -14,20 z" style="stroke-width:1.47376" />
                        </g>
                        <g transform="translate(2110)" id="g88" style="stroke-width:1.47376">
                            <g id="g85" style="stroke-width:1.47376">
                                <path id="path84" d="m 21,287 q 1,3 2,8 1,5 5,22 4,17 10,31 6,14 15,33 9,19 20,30 11,11 26,22 15,11 33,9 29,0 51,-12 22,-12 31,-22 9,-10 11,-20 2,-6 3,-6 1,0 8,7 48,52 111,52 h 3 q 48,0 72,-41 8,-19 8,-37 0,-30 -13,-48 -13,-18 -26,-23 -13,-5 -25,-4 -20,0 -32,11 -12,11 -12,29 0,48 56,64 -22,13 -36,13 -56,0 -103,-74 Q 229,315 224,298 219,281 190,165 156,25 151,16 138,-11 108,-11 95,-11 87,-5 79,1 76,7 q -3,6 -2,10 0,13 40,172 40,159 40,177 0,39 -26,39 -21,0 -36,-28 Q 77,349 68,316 59,283 57,280 55,278 41,278 H 27 q -6,6 -6,9 z" style="stroke-width:1.47376" />
                            </g>
                            <g transform="matrix(0.707,0,0,0.707,484,353.6)" id="g86" style="stroke-width:1.47376">
                                <path id="path85" d="m 109,429 q -27,0 -43,18 -16,18 -16,44 0,71 53,123 53,52 132,52 91,0 152,-56 61,-56 62,-145 0,-43 -20,-82 -20,-39 -48,-68 -28,-29 -80,-74 -36,-31 -100,-92 l -59,-56 76,-1 q 157,0 167,5 7,2 24,89 v 3 h 40 v -3 Q 448,183 436,95 424,7 421,3 V 0 H 50 v 19 12 q 0,7 6,15 6,8 30,35 29,32 50,56 9,10 34,37 25,27 34,37 9,10 29,33 20,23 28,34 8,11 23,30 15,19 21,32 6,13 15,29 9,16 13,32 4,16 7,30 3,14 3,33 0,63 -34,109 -34,46 -97,46 -33,0 -58,-17 -25,-17 -35,-33 -10,-16 -10,-19 0,-1 5,-1 18,0 37,-14 19,-14 19,-46 0,-25 -16,-42 -16,-17 -45,-18 z" style="stroke-width:1.47376" />
                            </g>
                            <g transform="matrix(0.707,0,0,0.707,484,-297.3)" id="g87" style="stroke-width:1.47376">
                                <path id="path86" d="m 109,429 q -27,0 -43,18 -16,18 -16,44 0,71 53,123 53,52 132,52 91,0 152,-56 61,-56 62,-145 0,-43 -20,-82 -20,-39 -48,-68 -28,-29 -80,-74 -36,-31 -100,-92 l -59,-56 76,-1 q 157,0 167,5 7,2 24,89 v 3 h 40 v -3 Q 448,183 436,95 424,7 421,3 V 0 H 50 v 19 12 q 0,7 6,15 6,8 30,35 29,32 50,56 9,10 34,37 25,27 34,37 9,10 29,33 20,23 28,34 8,11 23,30 15,19 21,32 6,13 15,29 9,16 13,32 4,16 7,30 3,14 3,33 0,63 -34,109 -34,46 -97,46 -33,0 -58,-17 -25,-17 -35,-33 -10,-16 -10,-19 0,-1 5,-1 18,0 37,-14 19,-14 19,-46 0,-25 -16,-42 -16,-17 -45,-18 z" style="stroke-width:1.47376" />
                            </g>
                        </g>
                    </g>
                    <g transform="translate(0,128.9)" id="g90" style="stroke-width:1.47376">
                        <path id="path89" d="m 1001,1150 q 16,0 19,-18 0,-5 -279,-888 L 460,-643 q -7,-7 -24,-7 h -12 q -1,3 -1,5 0,2 -2,5 -2,3 -2,9 0,6 -4,14 -4,8 -7,23 -3,15 -9,34 -6,19 -14,48 -8,29 -18,64 -10,35 -24,84 -14,49 -31,105 l -109,378 -65,-78 -27,26 101,121 52,60 208,-722 511,1614 q 5,10 18,10 z" style="stroke-width:1.47376" />
                    </g>
                    <rect width="2997.6001" height="60" x="1020" y="1218.8" id="rect90" style="stroke-width:1.47376" />
                </g>
            </g>
        </g>
    </g>
    <g inkscape:groupmode="layer" id="layer29" inkscape:label="Layer 2" style="display:none">
        <g transform="matrix(0.01660039,0,0,-0.01660036,305.5848,246.00156)" id="g6-71" style="display:inline;stroke-width:1.14696">
            <g id="g5-62" style="stroke-width:1.14696">
                <g id="g4-731" style="stroke-width:1.14696">
                    <g id="g2-961" style="stroke-width:1.14696">
                        <path id="use1-37" d="m 35,200 q 0,102 39,215 39,113 106,195 67,82 139,94 1,0 8,0 7,0 12,1 54,-4 84,-49 39,-60 39,-161 Q 462,380 417,261 372,142 302,66 232,-10 168,-10 h -7 q -36,0 -62,20 -26,20 -39,53 -13,33 -19,67 -6,34 -6,70 z m 348,366 q 0,102 -53,102 -36,0 -70,-45 -34,-45 -56,-102 -22,-57 -34,-100 -12,-43 -13,-50 49,-1 97,-1 l 97,1 q 1,1 8,33 7,32 16,80 9,48 8,82 z M 113,132 q 0,-106 53,-106 15,0 32,10 17,10 41,38 24,28 48,87 24,59 48,146 l 5,17 H 145 q 0,-3 -9,-38 -9,-35 -16,-78 -7,-43 -7,-76 z" style="stroke-width:1.14696" />
                    </g>
                    <g transform="matrix(0.707,0,0,0.707,502,-150)" id="g3-383" style="stroke-width:1.14696">
                        <path id="use2-838" d="m 109,429 q -27,0 -43,18 -16,18 -16,44 0,71 53,123 53,52 132,52 91,0 152,-56 61,-56 62,-145 0,-43 -20,-82 -20,-39 -48,-68 -28,-29 -80,-74 -36,-31 -100,-92 l -59,-56 76,-1 q 157,0 167,5 7,2 24,89 v 3 h 40 v -3 Q 448,183 436,95 424,7 421,3 V 0 H 50 v 19 12 q 0,7 6,15 6,8 30,35 29,32 50,56 9,10 34,37 25,27 34,37 9,10 29,33 20,23 28,34 8,11 23,30 15,19 21,32 6,13 15,29 9,16 13,32 4,16 7,30 3,14 3,33 0,63 -34,109 -34,46 -97,46 -33,0 -58,-17 -25,-17 -35,-33 -10,-16 -10,-19 0,-1 5,-1 18,0 37,-14 19,-14 19,-46 0,-25 -16,-42 -16,-17 -45,-18 z" style="stroke-width:1.14696" />
                    </g>
                </g>
            </g>
        </g>
        <path style="fill:none;stroke:#000000;stroke-width:0.999998;stroke-miterlimit:2;stroke-dasharray:none" id="path22" sodipodi:type="arc" sodipodi:cx="255.57509" sodipodi:cy="264.19427" sodipodi:rx="38.786079" sodipodi:ry="38.786011" sodipodi:start="5.4608445" sodipodi:end="0.00059110384" sodipodi:arc-type="arc" d="m 281.96932,235.77418 a 38.786079,38.786011 0 0 1 12.39184,28.44302" sodipodi:open="true" />
        <path id="path24" style="stroke-width:0.999998;stroke-miterlimit:2" inkscape:transform-center-y="0.60041756" d="m 288.07957,236.71085 -4.96664,5.53505 -2.31019,-7.06875 z" inkscape:transform-center-x="-0.51363095" />
    </g>
</svg>
