<svg xmlns="http://www.w3.org/2000/svg" width="560" height="365" viewBox="0 0 560 365" role="img" aria-labelledby="title"><title id="title">Two right triangles give the space diagonal</title><g stroke-width="2.3" stroke-linecap="round" stroke-linejoin="round"><line x1="95" y1="280" x2="330" y2="280" stroke="#9ca5ab"/><line x1="330" y1="280" x2="435" y2="220" stroke="#9ca5ab"/><line x1="435" y1="220" x2="200" y2="220" stroke="#9ca5ab" stroke-dasharray="7 6"/><line x1="200" y1="220" x2="95" y2="280" stroke="#9ca5ab" stroke-dasharray="7 6"/><line x1="95" y1="100" x2="330" y2="100" stroke="#9ca5ab"/><line x1="330" y1="100" x2="435" y2="40" stroke="#9ca5ab"/><line x1="435" y1="40" x2="200" y2="40" stroke="#9ca5ab"/><line x1="200" y1="40" x2="95" y2="100" stroke="#9ca5ab"/><line x1="95" y1="280" x2="95" y2="100" stroke="#9ca5ab"/><line x1="330" y1="280" x2="330" y2="100" stroke="#9ca5ab"/><line x1="435" y1="220" x2="435" y2="40" stroke="#9ca5ab"/><line x1="200" y1="220" x2="200" y2="40" stroke="#9ca5ab" stroke-dasharray="7 6"/><line x1="95" y1="280" x2="435" y2="220" stroke="#447c9a" stroke-dasharray="7 6"/><line x1="95" y1="280" x2="435" y2="40" stroke="#b66a50"/><text x="215" y="310" fill="#373b40" font-size="21" text-anchor="middle">2</text><text x="408" y="275" fill="#373b40" font-size="21" text-anchor="middle">3</text><text x="460" y="138" fill="#373b40" font-size="21" text-anchor="middle">6</text><text x="272" y="270" fill="#447c9a" font-size="21" text-anchor="middle">q</text><text x="276" y="143" fill="#b66a50" font-size="21" text-anchor="middle">d</text><text x="280" y="346" fill="#373b40" font-size="19" text-anchor="middle">first across the base, then up</text></g></svg>