<svg xmlns="http://www.w3.org/2000/svg" width="471.106" height="409.862" viewBox="0 0 441.662 384.246"><path d="M63.102 352.691c10.03-8.966 20.463-17.462 30.84-26.02 17.706-14.264 34.987-29.05 52.349-43.73 20.184-17.098 40.402-34.155 60.423-51.44 11.063-9.516 22.258-18.873 33.429-28.26 3.632-3.055 7.233-6.148 10.877-9.19 3.061-2.555 20.248-16.682 23.244-19.146 3.926-3.26 7.85-6.522 11.78-9.776 6.72-5.567 16.48-13.593 23.177-19.224 10.725-9.02 21.296-18.215 31.873-27.403 15.034-13.023 29.877-26.254 44.868-39.324 4.644-4.104 2.541-2.217 6.323-5.646l9.98 7.374c-4.085 3.219-1.836 1.437-6.738 5.355-15.473 12.578-30.437 25.747-45.638 38.648-10.681 9.16-21.342 18.346-32.14 27.37-7.804 6.522-15.389 12.696-23.222 19.185-3.935 3.26-7.854 6.54-11.781 9.808-22.584 18.676-45.095 37.449-67.296 56.578a5528.022 5528.022 0 0 1-60.29 51.615c-17.266 14.766-34.496 29.569-51.918 44.152-10.106 8.468-20.355 16.88-29.678 26.171l-10.462-7.098Z" style="fill:#000;fill-opacity:1;stroke:none;stroke-width:2.3;stroke-linecap:square;stroke-linejoin:miter;stroke-miterlimit:100;stroke-dasharray:none;stroke-opacity:1"/><path d="M242.532 330.635c1.84 5.778 1.79 11.95 1.977 17.946.398 12.742.01 2.094.51 14.983.282 6.008.72 12.002 1.3 17.987l-13.506 2.695c-.21-6.073-.36-12.147-.662-18.216-.208-4.587-.435-10.266-.76-14.858-.331-4.676-.592-9.612-2.039-14.12-.204-.638-.53-1.23-.795-1.845z" style="fill:#fff;fill-opacity:1;stroke:none;stroke-width:2.3;stroke-linecap:square;stroke-linejoin:miter;stroke-miterlimit:100;stroke-dasharray:none;stroke-opacity:1"/><ellipse cx="115.401" cy="-316.392" rx="17.524" ry="16.92" style="fill:#000;fill-opacity:1;stroke:none;stroke-width:2.3;stroke-linecap:square;stroke-linejoin:miter;stroke-miterlimit:100;stroke-dasharray:none;stroke-opacity:1" transform="scale(1 -1)"/><ellipse cx="353.292" cy="-118.402" rx="17.524" ry="16.92" style="fill:#000;fill-opacity:1;stroke:none;stroke-width:2.3;stroke-linecap:square;stroke-linejoin:miter;stroke-miterlimit:100;stroke-dasharray:none;stroke-opacity:1" transform="scale(1 -1)"/><path d="M14.037 285.076c-.446 1.21-.986 2.39-1.337 3.631-2.39 8.46-3.135 18.081-1.412 26.733.434 2.183 1.225 4.28 1.838 6.419 1.034 1.932 1.87 3.984 3.102 5.796 2.201 3.238 5.067 5.948 8.23 8.216 1.87 1.342 3.874 2.468 6.156 2.897.627.118 1.276.01 1.913.014 3.497-.834 14.444-3.707-1.081.251l11.177 2.74c-2.307.647-12.346 4.153-17.078 4.099-.796-.01-1.582-.18-2.373-.27-.742-.267-1.51-.466-2.225-.799-5.63-2.62-11.482-8.551-14.741-13.668-1.305-2.05-2.208-4.328-3.313-6.491-.64-2.322-1.462-4.6-1.92-6.965-.468-2.424-.7-4.894-.85-7.36-.51-8.36.627-16.64 2.157-24.836z" style="fill:#000;fill-opacity:1;stroke:none;stroke-width:2.3;stroke-linecap:square;stroke-linejoin:miter;stroke-miterlimit:100;stroke-dasharray:none;stroke-opacity:1"/><path d="M24.026 298.129c1.133.14 2.263.315 3.4.42 3.553.326 7.244.45 10.797.623 6.815.33 13.631.577 20.45.844 4.308.226 8.617.468 12.926.692l-8.988 7.075c-4.071-.466-8.152-.837-12.245-1.053-6.844-.315-13.687-.545-20.534-.762-3.74-.118-7.478-.299-11.22-.357-1.205-.02-2.411.019-3.617.029l9.03-7.51z" style="fill:#000;fill-opacity:1;stroke:none;stroke-width:2.3;stroke-linecap:square;stroke-linejoin:miter;stroke-miterlimit:100;stroke-dasharray:none;stroke-opacity:1"/><path d="M50.584 287.326a1053.614 1053.614 0 0 0-3.563 32.139l-10.886 1.466c1.657-10.502 3.061-21.093 3.11-31.743zm10.87 8.782c1.259-2.095 2.676-4.103 4.401-5.844.511-.515 2.257-2.125 3.096-2.385 2.088-.648 4.256-.998 6.384-1.496.459.424 1.023.757 1.376 1.272 1.429 2.081 1.499 5.041 1.52 7.434.024 2.83-.144 4.746-.317 7.588-.214 3.015-.448 6.028-.625 9.044-.044.749-.111 1.533-.093 2.29-1.91.02-3.824.21-5.728.06-.187-.014.194-.322.287-.485.154-.271.283-.557.454-.818.86-1.32 1.943-2.493 2.983-3.669 3.31-3.405 6.897-6.53 10.473-9.65.675-.579 1.4-1.093 2.103-1.633l5.903.77c-.723.536-1.447 1.072-2.23 1.519-3.652 2.924-7.087 6.125-10.45 9.374a63.8 63.8 0 0 0-2.865 3.386c-.143.182-.323.34-.439.54-.12.21-.025.624-.26.677-2.015.456-4.1.515-6.15.772.176-.721.227-1.56.303-2.278.318-3.004.556-6.017.79-9.029.197-3.346.307-4.087.25-7.373-.025-1.42.01-4.549-1.104-5.767-.136-.15-.391-.1-.587-.149 1.25-.425 2.496-.863 3.751-1.275.493-.162-1.01.273-1.464.524-2.609 1.444-4.338 4.101-5.907 6.528zm31.591-16.383c2.084 3.765 3.538 7.841 5.014 11.873l-5.478 1.622c-1.332-3.883-2.686-7.828-4.954-11.282zm29.38-29.281c1.762-2.723 3.772-5.414 6.455-7.303.418-.294.875-.528 1.312-.791 2.456-1.066 3.456-1.606 7.182-1.508.532.014.766.754 1.04 1.21 1.127 1.876 1.17 4.232 1.359 6.33.257 4.936-.18 9.873-.428 14.801-.117 3.035.563 2.05-5.63 1.311-.252-.03.406-.305.608-.458l.83-.634c4.115-3.216 8.101-6.594 12.202-9.83 1.37-1.103 2.848-2.06 4.259-3.109l5.86 1.065c-1.649.578-2.974 1.873-4.444 2.762-4.141 3.138-8.135 6.466-12.032 9.902-.265.185-.537.359-.794.554-.2.153-.326.458-.575.489-6.892.85-6.372 2.16-6.074-1.158.409-4.824.899-9.672.59-14.515-.146-1.438-.178-2.662-.608-4.031-.104-.331-.238-.664-.451-.937-.078-.1-.488-.07-.367-.11 1.412-.463 2.88-.738 4.298-1.182.347-.109-.72.116-1.08.174-.428.158-.877.268-1.285.472-2.741 1.371-4.706 4.02-6.34 6.513zm-34.12.381c.51 4.297 1.84 8.698 4.878 11.932.806.858 1.713 1.663 2.758 2.205.903.469 1.97.506 2.957.76.945-.319 3.834-.947 2.836-.954-2.245-.016-4.575 1.731-6.67.926-1.122-.431 1.88-1.533 2.61-2.487 1.645-2.15 2.724-5.046 3.292-7.653.28-1.28.305-2.601.457-3.901-.054-1.031-.039-2.068-.163-3.093a8.884 8.884 0 0 0-.447-1.926c-.076-.211-.653-.484-.432-.516 3.761-.545 7.614-.376 11.35-1.067.344-.064-.22-1.242.07-1.046.515.349.563 1.11.844 1.665 3.588 5.549 9.095 9.436 13.553 14.22.955 1.025 1.804 2.144 2.707 3.217.625 1.158 1.419 2.24 1.876 3.474 1.306 3.524 1.143 7.538-.659 10.86-1.516 2.795-2.733 3.452-5.083 5.432-3.355 2.047-1.744 1.185-4.795 2.657l-11.237-2.663c3.09-.662 1.47-.177 4.822-1.582 2.064-1.154 3.371-1.635 4.933-3.47a7.578 7.578 0 0 0 1.376-7.483c-.354-1-1.009-1.866-1.513-2.799-.827-.978-1.607-1.999-2.481-2.935-4.744-5.08-10.604-9.188-14.399-15.105-.246-.445-3.11-5.07-1.905-5.585 13.106-5.598 12.427-1.98 12.625 6.196-.155 1.505-.196 3.026-.466 4.514-.562 3.096-1.604 6.473-3.16 9.23-.75 1.325-1.324 2.99-2.666 3.709-10.365 5.553-9.48 5.076-16.821 4.211-1.166-.634-2.435-1.106-3.497-1.902-5.18-3.883-7.576-10.356-8.995-16.412l11.444-2.629zm17.823-46.178c5.096.112 10.211.41 15.209 1.491 4.493.973 6.069 1.659 10.405 3.152 6.966 2.972 12.65 5.905 16.774 12.568 2.223 3.593 2.077 4.415 2.97 8.37.165 4.455.256 2.362-.161 6.282l-11.414 1.398c.73-3.09.472-1.433.672-4.984-.202-1.11-.248-2.259-.604-3.328-2.614-7.853-10.173-11.465-17.322-14.225-1.656-.507-3.29-1.094-4.968-1.522-5.427-1.385-11.945-2.154-17.555-1.56-.834.087-1.649.307-2.473.461z" style="fill:#000;fill-opacity:1;stroke:none;stroke-width:2.3;stroke-linecap:square;stroke-linejoin:miter;stroke-miterlimit:100;stroke-dasharray:none;stroke-opacity:1"/><path d="M351.684 305.546c.463-9.386.461-18.77.427-28.154.086-8.396-.271-16.776-.45-25.162-.214-9.973-.24-19.956-.33-29.933.137-19.823.126-39.642.103-59.461.02-8.481-.353-16.948-.333-25.428l13.827-2.039c-.157 1.36-.38 2.716-.472 4.08-.48 7.096-.21 14.216-.4 21.312-.077 6.037-.211 12.074-.287 18.111-.173 13.783-.182 27.564-.212 41.344.277 18.323.932 36.625 1.59 54.93.315 9.276.614 18.558 1.04 27.828z" style="fill:gray;fill-opacity:1;stroke:none;stroke-width:2.3;stroke-linecap:square;stroke-linejoin:miter;stroke-miterlimit:100;stroke-dasharray:none;stroke-opacity:1"/><path d="M210.117 356.798c7.696-2.45 7.42-2.46 19.978-4.954 2.064-.41 4.183-.457 6.277-.662 7.904-.775 15.82-1.276 23.745-1.783 9.732-.854 19.499-.986 29.26-1.146l-10.797 8.964c-9.392-.218-18.784.077-28.16.635-7.995.614-16.005 1.186-23.944 2.357-2.14.315-7.733 2.805-6.395 1.106 1.527-1.939 4.77-1.28 7.121-2.028.921-.293-1.882.44-2.824.661l-14.26-3.15zm170.531-128.369c8.103-.744 16.14-2.065 24.234-2.883 3.925-.397 10.24-.848 14.173-1.145 5.68-.355 11.36-.681 17.046-.882 3.884-.137 2.38-.164 5.56.04l-11.325 9.058c-7.072-.359-14.165.055-21.222.5-13.134 1.087-26.343 2.303-39.169 5.462z" style="fill:#000;fill-opacity:1;stroke:none;stroke-width:2.3;stroke-linecap:square;stroke-linejoin:miter;stroke-miterlimit:100;stroke-dasharray:none;stroke-opacity:1"/><path d="M344.325 269.136c5.243 13.127 10.7 26.142 17.32 38.097.698 1.114 1.4 2.223 2.093 3.34.455.734.903 1.475 1.355 2.211.239.39.48.777.717 1.169.092.153.41.374.272.464-10.31 6.786-7.43 8.934-11.122 5.754-4.58-3.5 5.295-8.941 9.658-6.37.016.006.243.158.303.053.116-.202-.091-.48-.161-.707-.078-.255-.015-.846-.22-.773-3.2 1.144-6.295 2.818-9.443 4.227.175-.403.376-.789.524-1.21.915-2.61 1.67-5.305 2.514-7.953a831.947 831.947 0 0 1 7.239-21.717c3.2-8.333 1.666-4.461 4.572-11.634l10.62-.095c-3.063 6.942-1.47 3.19-4.734 11.29-3.674 10.27-7.179 20.742-9.786 31.522-9.208 4.922-8.372 8.495-11.662 2.809-2.344-4.717-.467-.376 9.686-6.842.228-.145-.393-.51.2-.199l.342.18c3.761 1.383 1.06.235-8.894 7.037-.1.069-.112-.248-.173-.368a54.247 54.247 0 0 0-.615-1.17c-.408-.75-.824-1.493-1.239-2.237-.672-1.204-1.347-2.404-2.02-3.606-6.43-12.395-11.972-25.558-17.654-38.593l10.308-4.68z" style="fill:gray;fill-opacity:1;stroke:none;stroke-width:2.3;stroke-linecap:square;stroke-linejoin:miter;stroke-miterlimit:100;stroke-dasharray:none;stroke-opacity:1"/><path d="M253.631 93.346c-1.252 4.419-1.748 8.998-1.936 13.575-.202 4.94-.182 8.5.593 13.398.322 2.028.899 4.007 1.348 6.01 1.7 3.572 2.304 5.931 5.39 8.512 1.103.922 4.827 3.077 3.762 2.111-1.327-1.202-4.19-1.085-4.562-2.837-.293-1.38 2.743.7 4.145.875 1.326.166 2.67.095 4.006.142l3.213-.3 8.031 7.966-3.602.454c-2.164.094-7.097.506-9.184-.236-5.318-1.894-12.695-4.327-16.774-9.178-2.836-3.373-3.332-5.88-4.868-9.996-.378-2.117-.864-4.217-1.139-6.35-1.206-9.364-.721-19.203.749-28.515l10.827 4.37zm33.381-6.94c-.802 8.922-2.11 17.785-3.256 26.667-.421 3.443-.779 6.88-.751 10.349l-11.25-2.638c.432-3.487 1-6.954 1.459-10.438 1.16-8.875 2.46-17.772 2.353-26.746z" style="fill:#000;fill-opacity:1;stroke:none;stroke-width:2.3;stroke-linecap:square;stroke-linejoin:miter;stroke-miterlimit:100;stroke-dasharray:none;stroke-opacity:1"/><path d="M254.935 102.225c9.531-2.797 19.591-2.377 29.407-2.032 4.143.195 8.282.469 12.42.743l8.217 7.719c-4.179-.367-8.353-.806-12.547-.977-9.296-.67-18.849-1.279-27.939 1.234zm69.863-49.909c.476 1.176.842 2.402 1.428 3.527 1.384 2.66 3.66 6.096 5.995 8.045 2.104 1.757 4.576 2.943 7.387 2.381 1.132-.226 2.062-1.039 3.093-1.559-2.187.25-4.71 1.937-6.56.746-1.171-.752 1.708-2.226 2.296-3.487 1.959-4.202 2.295-9.023 2.021-13.577-.057-.949-.246-1.884-.37-2.827-.102-.472-.75-1.228-.305-1.416 3.667-1.545 7.509-2.983 11.477-3.289.834-.064.582 1.572.932 2.332.439.95.907 1.888 1.432 2.793 2.167 3.745 2.73 4.233 5.468 7.834 3.177 4.118 7.098 7.607 10.223 11.766.856 1.14 1.754 2.276 2.35 3.571 1.587 3.453 1.08 4.264.814 7.866-.598 1.273-.993 2.662-1.795 3.818-1.735 2.5-4.453 4.498-7.01 6.047-1.2.725-2.417 1.466-3.746 1.91-4.181 1.4-8.485 2.403-12.728 3.605l8.114-7.92c-2.11.676-4.18 1.496-6.331 2.03-1.283.319 2.515-.83 3.717-1.382 2.02-.928 5.05-2.7 6.703-4.282.72-.688 1.214-1.577 1.822-2.366.206-.834.621-1.642.62-2.5-.01-2.444-1.301-4.168-2.684-6.057-3.09-4.221-6.965-7.798-10.167-11.926-1.128-1.44-2.298-2.847-3.384-4.318-2.86-3.869-2.186-3.198-4.404-6.763-.262-.421-1.271-1.005-.831-1.235a44.775 44.775 0 0 1 10.848-3.989c.504-.113.013 1.033.019 1.55.344 6.244.318 12.598-1.758 18.591-.582 1.682-.768 3.818-2.21 4.862-3.758 2.723-8.413 3.92-12.62 5.88-1.374.079-2.76.435-4.122.234-7.03-1.036-11.623-7.859-14.897-13.47-.78-1.335-1.418-2.748-2.127-4.122z" style="fill:#000;fill-opacity:1;stroke:none;stroke-width:2.3;stroke-linecap:square;stroke-linejoin:miter;stroke-miterlimit:100;stroke-dasharray:none;stroke-opacity:1"/><path d="M334.775 78.723c3.036 1.894 4.396 3.48 4.53 7.296.086 2.465-.486 4.131-1.052 6.498-1.106 3.823-.572 2.01-1.599 5.442l-5.729.433c1.103-3.38.541-1.6 1.676-5.342.669-2.517 1.673-5.341.78-7.961-.582-1.706-2.129-2.514-3.621-3.252l5.015-3.115z" style="fill:#000;fill-opacity:1;stroke:none;stroke-width:2.3;stroke-linecap:square;stroke-linejoin:miter;stroke-miterlimit:100;stroke-dasharray:none;stroke-opacity:1"/><path d="M303.847 89.333a677.63 677.63 0 0 1 10.168 10.588c1.94 1.919 3.734 3.978 5.647 5.923.748.76 1.534 1.484 2.283 2.244l.163.193-6.365 2.841-.058-.1c-.628-.818-1.327-1.565-2.011-2.336-1.794-2.018-3.578-4.044-5.47-5.972-3.427-3.544-6.851-7.092-10.547-10.362zm63.195-49.467c3.131 4.395 6.678 8.475 10.292 12.476 2.394 2.522 4.868 4.97 7.453 7.298.744.67 1.562 1.458 2.445 1.972-6.412 2.876-4.644 4.417-6.459 2.79l6.332-2.929c1.447 2.03.164.124-6.041 3.316-.686-.779-1.426-1.517-2.15-2.258-2.43-2.492-4.886-4.958-7.287-7.478-3.745-4.02-7.409-8.115-10.873-12.381zM341.152.161c.636-.05 1.27-.134 1.907-.15 10.071-.245 20.715 3.381 30.136 5.923 1.54.643 3.114 1.212 4.622 1.928 1.521.722 2.997 1.539 4.456 2.382 3.24 1.872 5.039 3.025 7.722 5.648 2.887 2.822 3.34 3.863 5.545 7.163 1.826 3.528 2.947 7.255 2.997 11.244.034 2.728-.59 5.163-1.361 7.738-.67 1.763-.474 1.284-1.095 2.802-.103.252-.237.492-.313.754-.013.044.104-.03.116-.075.154-.593.247-1.2.371-1.8l-12.929.616c.02-.663-.018-1.33.057-1.99.074-.651.34-.793.655-1.309.547-.9.75-1.393 1.229-2.386.821-2.143 1.482-4.124 1.48-6.471 0-3.504-1.155-6.724-2.877-9.736-2.185-2.976-2.614-3.891-5.447-6.372-3.5-3.065-7.753-5.408-12.031-7.185-1.521-.632-3.102-1.11-4.652-1.664 1.942.483 3.933.802 5.828 1.45 1.395.477-2.875-.659-4.324-.936-3.68-.704-7.456-1.265-11.211-1.023L341.152.162z" style="fill:#000;fill-opacity:1;stroke:none;stroke-width:.1;stroke-linecap:square;stroke-linejoin:miter;stroke-miterlimit:4;stroke-dasharray:none;stroke-opacity:1"/><path d="M356.422 320.793c-1.622-.097-3.242-.228-4.864-.292-4.371-.175-8.245-.15-12.64-.162-8.118-.027-16.237-.063-24.355-.104-21.566-.13-43.131.16-64.694.503-11.062.168-22.12.574-33.18.77-3.582.063-7.165.06-10.747.12-5.949.096-14.158.325-20.131.481-13.3.384-26.572 1.39-39.87 1.79-2.066.044-4.13.06-6.196.022l11.376-9.173c1.88.08 3.76.178 5.642.174 12.88.085 25.747-.537 38.622-.809 21.237-.41 42.478-.614 63.715-1.052 21.78-.365 43.557-.8 65.34-.943 8.233-.019 16.464-.113 24.697-.2 4.335-.044 8.67.01 13.005-.054 1.811-.026 3.621-.114 5.432-.172l-11.153 9.102z" style="fill:gray;fill-opacity:1;stroke:none;stroke-width:2.3;stroke-linecap:square;stroke-linejoin:miter;stroke-miterlimit:100;stroke-dasharray:none;stroke-opacity:1"/><path d="M195.552 298.735c-3.956 1.171-5.923 1.691-10.178 3.348-2.516.98-4.988 2.072-7.453 3.173-5.749 2.569-9.24 4.29-14.724 7.25-1.972 1.065-3.906 2.198-5.859 3.298-3.392 1.928-6.694 4.012-9.8 6.377-.762.58-1.507 1.17-2.193 1.837-.68.613.405-.335.628-1.058.516-1.676.944-3.393 1.138-5.136.086-.776-.31-1.542-.308-2.323 0-.133.441-.204.314-.243-4.4-1.34-8.863-2.474-13.294-3.712 4.904 1.384 9.822 2.72 14.713 4.151.42.123.8.352 1.21.505.601.225 1.214.419 1.821.63 3.618 1.26 7.169 2.683 10.739 4.075 9.209 3.35 18.471 6.633 28.01 8.933 1.157.279 2.325.507 3.488.761l2.451.57-16.124 7.018-1.795-.766a273.007 273.007 0 0 0-30.43-10.301c-5.35-1.411-4.515-1.225-9.313-2.38-1.04-.25-2.083-.491-3.124-.737-.778-.196-1.555-.397-2.334-.587-.485-.118-1.94-.475-1.46-.339 4.302 1.223 8.617 2.4 12.925 3.599-4.86-1.352-9.752-2.592-14.58-4.054-.33-.1-.668-.311-.834-.614-1.613-2.945-.971-4.401.084-7.957.422-1.42.51-1.359 1.247-1.417.777.163.184.11 1.404-.268.545-.17 1.1-.305 1.645-.472.893-.271 1.792-.524 2.668-.843 3.155-1.147 6.226-2.547 9.301-3.881 4.914-2.237 8.813-3.965 13.692-6.395a276.421 276.421 0 0 0 7.448-3.86c2.248-1.206 4.506-2.4 6.687-3.725 3.597-2.187 4.569-3.045 7.437-5.298l14.752 10.84z" style="fill:gray;fill-opacity:1;stroke:none;stroke-width:.1;stroke-linecap:square;stroke-linejoin:miter;stroke-miterlimit:4;stroke-dasharray:none;stroke-opacity:1"/></svg>