<svg xmlns="http://www.w3.org/2000/svg" width="30" height="30.001"><path d="M-280.336 243.54c0-4.048-3.274-7.3-7.3-7.3a7.278 7.278 0 0 0-7.299 7.3 7.293 7.293 0 0 0 7.3 7.299c4.025 0 7.299-3.274 7.299-7.3zm0 0" style="fill:none;stroke:red;stroke-width:4.07701;stroke-linecap:butt;stroke-linejoin:miter;stroke-miterlimit:8;stroke-dasharray:none;stroke-opacity:1" transform="translate(302.636 -228.54)"/><path d="M-280.336 243.54c0-4.048-3.274-7.3-7.3-7.3a7.278 7.278 0 0 0-7.299 7.3 7.293 7.293 0 0 0 7.3 7.299c4.025 0 7.299-3.274 7.299-7.3zm0 0" style="fill:none;stroke:red;stroke-width:4.07701;stroke-linecap:butt;stroke-linejoin:miter;stroke-miterlimit:8;stroke-dasharray:none;stroke-opacity:1" transform="translate(302.636 -228.54)"/></svg>