<svg xmlns="http://www.w3.org/2000/svg" width="500" height="220" viewBox="0 0 500 220"><defs><marker id="a" markerHeight="1" markerWidth="1" orient="auto-start-reverse" preserveAspectRatio="xMidYMid" refX="0" refY="0" style="overflow:visible" viewBox="0 0 1 1"><path d="m5.77 0-8.65 5V-5Z" style="fill:context-stroke;fill-rule:evenodd;stroke:context-stroke;stroke-width:1pt" transform="scale(.5)"/></marker></defs><path d="M61.08 38.647q-6 0-27 6t-22 12q0 7 55 232t61 235q15 32 52 32 20 0 42-15t22-44q0-5-2-15-1-7-87-223t-89-218-5-2" style="stroke-width:.0685162" transform="matrix(.17946 .0436 .0436 -.17946 215.03 153.025)"/><path d="M157.44 82.32h52.413m174.875 0h52.413" style="fill:none;stroke:#000;stroke-width:5;stroke-linecap:round;stroke-miterlimit:2;stroke-dasharray:none" transform="matrix(.94 0 0 .94 -29.453 6.219)"/><path d="M209.716 82.892A90 90 0 0 1 296.9 13.645a90 90 0 0 1 87.782 68.488" style="fill:none;stroke:#000;stroke-width:5;stroke-miterlimit:2;stroke-dasharray:none" transform="matrix(.94 0 0 .94 -29.453 6.219)"/><path d="M157.44 124.968h52.413m174.875 0h52.413" style="fill:none;stroke:#000;stroke-width:5;stroke-linecap:round;stroke-miterlimit:2;stroke-dasharray:none" transform="matrix(.94 0 0 .94 -29.453 6.219)"/><path d="M384.946 124.054a90 90 0 0 1-87.45 69.59 90 90 0 0 1-87.767-69.192" style="fill:none;stroke:#000;stroke-width:5;stroke-miterlimit:2;stroke-dasharray:none" transform="matrix(.94 0 0 .94 -29.453 6.219)"/><path d="M424.653 112.178h13.256v16.075h45.57v-16.075h13.152M424.653 95.11h13.256V78.442h45.57V95.11h13.152" style="display:inline;fill:none;fill-rule:evenodd;stroke:#000;stroke-width:2.00001;stroke-linecap:butt;stroke-linejoin:miter;stroke-dasharray:none;stroke-opacity:1"/><g style="stroke-width:1.06127"><g style="fill:#000;fill-opacity:1;stroke-width:1.48324"><path d="M.344-3.953h.906L.375.234C.156 1.313-.172 1.86-.594 1.86c-.125 0-.203-.078-.203-.171 0-.016.016-.047.047-.11a.26.26 0 0 0 .047-.156c0-.203-.188-.375-.39-.375-.22 0-.376.172-.376.406 0 .344.36.61.797.61.875 0 1.578-.985 1.985-2.813l.718-3.203h1.094l.063-.313H2.109c.282-1.562.657-2.28 1.204-2.28.14 0 .218.062.218.124 0 .031 0 .047-.031.11a.34.34 0 0 0-.063.203c0 .234.157.39.376.39.218 0 .421-.172.421-.39 0-.375-.375-.657-.859-.657-.5 0-.875.22-1.234.688-.313.39-.5.86-.813 1.812H.422Zm0 0" style="stroke:none;stroke-width:1.48324" transform="translate(452.105 112.752)scale(3.8605)"/></g><path d="M79 43q-6 0-27 6T30 61q0 7 55 232t61 235q15 32 52 32 20 0 42-15t22-44q0-5-2-15-1-7-87-223T84 45t-5-2" style="stroke-width:.58747" transform="rotate(187.196 237.617 33.63)scale(-.02291 .02291)"/></g><path d="M86.79 103.644h31.086" style="fill:none;stroke:#000;stroke-width:1.4;stroke-linecap:butt;stroke-miterlimit:2;stroke-dasharray:none;marker-end:url(#a)"/><path d="M376.955 103.644h31.085" style="fill:none;stroke:#000;stroke-width:1.4;stroke-linecap:butt;stroke-miterlimit:2;stroke-dasharray:none;marker-end:url(#a)"/><path d="M134.032 187.87v-49.812" style="fill:none;stroke:#000;stroke-width:1.2;stroke-linecap:butt;stroke-miterlimit:2;stroke-dasharray:none;marker-end:url(#a)"/><text xml:space="preserve" x="-609.679" y="-283.522" style="font-style:italic;font-variant:normal;font-weight:700;font-stretch:normal;font-size:10px;line-height:1.2;font-family:Menlo;-inkscape-font-specification:&quot;Menlo Bold Italic&quot;;text-align:center;letter-spacing:.1px;text-anchor:middle;fill:#d40000;stroke:none;stroke-width:1.2;stroke-linecap:butt;stroke-miterlimit:2;stroke-dasharray:none"><tspan x="-609.679" y="-283.522">output</tspan><tspan x="-609.629" y="-271.522">tube</tspan></text><path d="M367.362 187.87v-49.812" style="fill:none;stroke:#000;stroke-width:1.2;stroke-linecap:butt;stroke-miterlimit:2;stroke-dasharray:none;marker-end:url(#a)"/><text xml:space="preserve" x="134.033" y="198.599" style="font-style:italic;font-variant:normal;font-weight:700;font-stretch:normal;font-size:12px;line-height:1.2;font-family:Menlo;-inkscape-font-specification:&quot;Menlo Bold Italic&quot;;text-align:center;letter-spacing:.12px;text-anchor:middle;fill:#d40000;stroke:none;stroke-width:1.2;stroke-linecap:butt;stroke-miterlimit:2;stroke-dasharray:none"><tspan x="134.033" y="198.599" style="font-style:normal;font-variant:normal;font-weight:400;font-stretch:normal;font-family:Baskerville;-inkscape-font-specification:Baskerville;fill:#000;stroke-width:1.2">input</tspan><tspan x="134.093" y="213.301" style="font-style:normal;font-variant:normal;font-weight:400;font-stretch:normal;font-family:Baskerville;-inkscape-font-specification:Baskerville;fill:#000;stroke-width:1.2">tube</tspan></text><text xml:space="preserve" x="367.342" y="198.453" style="font-style:italic;font-variant:normal;font-weight:700;font-stretch:normal;font-size:12px;line-height:1.2;font-family:Menlo;-inkscape-font-specification:&quot;Menlo Bold Italic&quot;;text-align:center;letter-spacing:.12px;text-anchor:middle;fill:#d40000;stroke:none;stroke-width:1.2;stroke-linecap:butt;stroke-miterlimit:2;stroke-dasharray:none"><tspan x="367.342" y="198.453" style="font-style:normal;font-variant:normal;font-weight:400;font-stretch:normal;font-family:Baskerville;-inkscape-font-specification:Baskerville;fill:#000;stroke-width:1.2">output</tspan><tspan x="367.402" y="213.155" style="font-style:normal;font-variant:normal;font-weight:400;font-stretch:normal;font-family:Baskerville;-inkscape-font-specification:Baskerville;fill:#000;stroke-width:1.2">tube</tspan></text><text xml:space="preserve" x="461.442" y="47.692" style="font-style:italic;font-variant:normal;font-weight:700;font-stretch:normal;font-size:12px;line-height:1.2;font-family:Menlo;-inkscape-font-specification:&quot;Menlo Bold Italic&quot;;text-align:center;letter-spacing:.12px;text-anchor:middle;fill:#d40000;stroke:none;stroke-width:1.2;stroke-linecap:butt;stroke-miterlimit:2;stroke-dasharray:none"><tspan x="461.502" y="47.692" style="font-style:normal;font-variant:normal;font-weight:400;font-stretch:normal;font-family:Baskerville;-inkscape-font-specification:Baskerville;fill:#000;stroke-width:1.2">output</tspan></text><path d="m496.63 64.994-.114.114h-.628q-.076 0-.133-.076t-.095-.133-.153-.267-.361-.457q-1.162-1.542-3.256-2.323-2.095-.78-4.113-.8-.247 0-.305-.056-.057-.058-.057-.42v-1.275q0-.38.057-.457.058-.076.286-.076 1.657 0 3.465.685 3.523 1.562 5.255 4.608l.153.267z"/><path d="M-10 0v120h431.627V0Z" style="stroke-width:.822016" transform="matrix(-.04177 0 0 .01904 486.998 58.768)"/><path d="M460.333 54.713c-.35.403-.564.932-.967 1.306-1.604 1.694-3.937 2.538-6.227 2.718-.448.095-1.354-.203-1.222.544.024.571-.055 1.157.057 1.715.474.108.984.01 1.467-.034 2.297-.29 4.404-1.515 6.01-3.151.456-.476.867-.997 1.224-1.551 1.306 2.026 3.338 3.57 5.617 4.34.98.29 2.022.53 3.047.416.183-.157.056-.495.094-.731-.02-.487.05-.985-.057-1.46-.77-.12-1.584-.063-2.356-.252-2.062-.39-4.042-1.38-5.417-3.023-.24-.286-.322-.889-.772-.837z"/><path d="M-12.18 0v120H410V0Z" style="stroke-width:.81071" transform="matrix(-.04294 0 0 .01904 451.475 58.768)"/><path d="M433.869 59.91v.667q0 .342-.057.4-.058.057-.305.076-2.704 0-4.589.97-1.885.972-2.78 2.152-.152.172-.304.4-.153.229-.229.362t-.133.133q-.038.038-.38.038h-.324l-.115-.114v-.666l.153-.267q1.732-3.046 5.255-4.608 1.808-.685 3.465-.685.247 0 .286.057t.057.4z"/><path d="M5.04 112.178h13.224v16.075h45.46v-16.075h13.12M5.042 95.11h13.223V78.442h45.46V95.11h13.12" style="display:inline;fill:none;fill-rule:evenodd;stroke:#000;stroke-width:1.88001;stroke-linecap:butt;stroke-linejoin:miter;stroke-dasharray:none;stroke-opacity:1"/><g style="fill:#000;fill-opacity:1;stroke:none;stroke-width:1.39761"><path d="M.344-3.953h.906L.375.234C.156 1.313-.172 1.86-.594 1.86c-.125 0-.203-.078-.203-.171 0-.016.016-.047.047-.11a.26.26 0 0 0 .047-.156c0-.203-.188-.375-.39-.375-.22 0-.376.172-.376.406 0 .344.36.61.797.61.875 0 1.578-.985 1.985-2.813l.718-3.203h1.094l.063-.313H2.109c.282-1.562.657-2.28 1.204-2.28.14 0 .218.062.218.124 0 .031 0 .047-.031.11a.34.34 0 0 0-.063.203c0 .234.157.39.376.39.218 0 .421-.172.421-.39 0-.375-.375-.657-.859-.657-.5 0-.875.22-1.234.688-.313.39-.5.86-.813 1.812H.422Zm0 0" style="stroke:none;stroke-width:1.39761" transform="translate(36.072 112.859)scale(3.8512)"/></g><text xml:space="preserve" x="41.122" y="47.395" style="font-style:italic;font-variant:normal;font-weight:700;font-stretch:normal;font-size:12px;line-height:1.2;font-family:Menlo;-inkscape-font-specification:&quot;Menlo Bold Italic&quot;;text-align:center;letter-spacing:.12px;text-anchor:middle;fill:#d40000;stroke:none;stroke-width:1.2;stroke-linecap:butt;stroke-miterlimit:2;stroke-dasharray:none"><tspan x="41.182" y="47.395" style="font-style:normal;font-variant:normal;font-weight:400;font-stretch:normal;font-family:Baskerville;-inkscape-font-specification:Baskerville;fill:#000;stroke:none;stroke-width:1.2">input</tspan></text><g style="stroke:#f0f"><path stroke-width=".019" d="m545.963 67.642-.114.115h-.628q-.076 0-.133-.077-.058-.076-.096-.133t-.152-.266q-.114-.21-.362-.457-1.161-1.543-3.256-2.323t-4.112-.8q-.248 0-.305-.057t-.057-.419v-1.276q0-.38.057-.457.057-.076.286-.076 1.656 0 3.465.686 3.522 1.56 5.255 4.607l.152.267z" style="stroke:#f0f" transform="translate(-469.119 -2.946)"/><g style="stroke:#f0f;stroke-width:.764296"><path stroke-width=".775" d="M-21.73 0v120H410V0Z" style="stroke:#f0f" transform="matrix(-.0417 0 0 .01904 66.723 58.47)"/></g><g style="stroke:#f0f"><path d="M-10 60v51q0 7 5 7 4 2 15 2 86 0 180-36Q375 2 466-158l8-14v-35l-6-6h-34q-3 0-6 4t-5 7-9 15-18 24Q331-82 224-41T9 0Q-4 0-7 3t-3 22z" style="stroke:#f0f" transform="matrix(-.01904 0 0 .01904 49.625 58.47)"/><path d="m432-213-6 6v35l8 14Q525 2 710 84q74 29 155 35h12q9 0 13 1 14 0 17-3t3-19V25q0-18-3-21t-16-4Q758 0 643-55T475-205q-4-6-7-7t-19-1z" style="stroke:#f0f" transform="matrix(-.01904 0 0 .01904 49.625 58.47)"/></g><g style="stroke:#f0f;stroke-width:.754653"><path stroke-width=".755" d="M-10 0v120h420V0Z" style="stroke:#f0f" transform="matrix(-.04337 0 0 .01904 32.04 58.47)"/></g><path stroke-width=".019" d="M483.375 62.559v.666q0 .343-.057.4t-.305.076q-2.704 0-4.589.971t-2.78 2.152q-.152.171-.304.4-.152.228-.229.361-.076.134-.133.134-.038.038-.38.038h-.324l-.115-.115v-.666l.153-.267q1.732-3.046 5.255-4.607 1.809-.686 3.465-.686.248 0 .286.057.038.058.057.4z" style="stroke:#f0f" transform="translate(-469.119 -2.946)"/></g></svg>