<?xml version="1.0" encoding="UTF-8" standalone="no"?>
<svg id="svg228615" width="820" height="435" preserveAspectRatio="none" version="1.1" viewBox="-20 -10 820 435" sodipodi:docname="svg_ch4_5_euler_final_graph.svg" inkscape:version="1.3.2 (091e20e, 2023-11-25)" xmlns:inkscape="http://www.inkscape.org/namespaces/inkscape" xmlns:sodipodi="http://sodipodi.sourceforge.net/DTD/sodipodi-0.dtd" xmlns:xlink="http://www.w3.org/1999/xlink" xmlns="http://www.w3.org/2000/svg" xmlns:svg="http://www.w3.org/2000/svg">
    <sodipodi:namedview id="namedview1" pagecolor="#ffffff" bordercolor="#000000" borderopacity="0.25" inkscape:showpageshadow="2" inkscape:pageopacity="0.0" inkscape:pagecheckerboard="0" inkscape:deskcolor="#d1d1d1" inkscape:zoom="5.3881537" inkscape:cx="453.40206" inkscape:cy="49.924337" inkscape:window-width="1728" inkscape:window-height="1055" inkscape:window-x="0" inkscape:window-y="34" inkscape:window-maximized="0" inkscape:current-layer="svg228615" />
    <style id="style228472" type="text/css">.grid{stroke:#9e9ed1;stroke-width:.4}.axes{stroke:#000;stroke-width:.9}</style>
    <defs id="defs228481">
        <marker style="overflow:visible" id="Triangle" refX="0" refY="0" orient="auto-start-reverse" inkscape:stockid="Triangle arrow" markerWidth="1" markerHeight="1" viewBox="0 0 1 1" inkscape:isstock="true" inkscape:collect="always" preserveAspectRatio="xMidYMid">
            <path transform="scale(0.5)" style="fill:context-stroke;fill-rule:evenodd;stroke:context-stroke;stroke-width:1pt" d="M 5.77,0 -2.88,5 V -5 Z" id="path135" />
        </marker>
        <path id="STIXWEBMAIN-2212" stroke-width="1" d="M 621,220 H 64 v 66 h 557 z" />
        <path id="STIXWEBMAIN-31" stroke-width="1" d="M 394,0 H 118 v 15 c 74,4 95,25 95,80 v 449 c 0,34 -9,49 -30,49 -10,0 -27,-5 -45,-12 l -27,-10 v 14 l 179,91 9,-3 V 76 c 0,-43 20,-61 95,-61 z" />
        <path id="STIXWEBMAIN-30" stroke-width="1" d="M 476,330 C 476,158 413,-14 250,-14 79,-14 24,172 24,336 24,513 93,676 254,676 385,676 476,535 476,330 Z m -96,-5 C 380,533 336,650 248,650 165,650 120,532 120,329 120,126 164,12 250,12 c 85,0 130,115 130,313 z" />
        <path id="STIXWEBMAIN-35" stroke-width="1" d="m 438,681 -36,-85 c -3,-7 -11,-13 -27,-13 H 181 L 141,498 C 284,471 334,449 391,370 417,334 426,296 426,243 426,147 396,85 328,35 281,1 226,-14 158,-14 83,-14 31,10 31,48 c 0,25 17,38 45,38 23,0 42,-5 74,-31 28,-23 51,-32 71,-32 70,0 135,83 135,169 0,64 -22,114 -67,150 -47,38 -117,70 -213,70 -9,0 -12,2 -12,8 0,2 1,5 1,5 l 109,237 h 207 c 23,0 32,5 48,26 z" />
        <clipPath id="trbl_clip_0_822.9_429_0">
            <path id="path228474" d="M 0,0 H 822.9 V 429 H 0 Z" />
        </clipPath>
    </defs>
    <g id="layer1" style="stroke:none">
        <rect id="rect252059" width="774.49402" height="403.76401" x="6.1290002" y="6.9099998" rx="0" ry="0" style="fill:#f9f9f9;stroke:none;stroke-width:2.25882" />
    </g>
    <g id="grid">
        <path id="path228483" d="M 26.317,410.675 V 229.542 m 0,-15.48 V 6.91" class="grid" />
        <path id="path228485" d="M 63.023,410.675 V 6.91" class="grid" />
        <path id="path228487" d="M 99.729,410.675 V 6.91" class="grid" />
        <path id="path228489" d="M 136.435,410.675 V 6.91" class="grid" />
        <path id="path228491" d="M 173.14,410.675 V 6.91" class="grid" />
        <path id="path228493" d="m 209.847,410.675 v -180.33 m 0,-16.283 V 6.91" class="grid" />
        <path id="path228495" d="M 246.552,410.675 V 6.91" class="grid" />
        <path id="path228497" d="M 283.258,410.675 V 6.91" class="grid" />
        <path id="path228499" d="M 319.964,410.675 V 6.91" class="grid" />
        <path id="path228501" d="M 356.67,410.675 V 6.91" class="grid" />
        <path id="path228503" d="M 393.376,410.675 V 6.91" class="grid" />
        <path id="path228505" d="M 430.082,410.675 V 6.91" class="grid" />
        <path id="path228507" d="M 466.788,410.675 V 6.91" class="grid" />
        <path id="path228509" d="M 503.493,410.675 V 6.91" class="grid" />
        <path id="path228511" d="M 540.2,410.675 V 6.91" class="grid" />
        <path id="path228513" d="M 576.905,410.675 V 230.336 m 0,-16.274 V 6.91" class="grid" />
        <path id="path228515" d="M 613.611,410.675 V 6.91" class="grid" />
        <path id="path228517" d="M 650.317,410.675 V 6.91" class="grid" />
        <path id="path228519" d="M 687.023,410.675 V 6.91" class="grid" />
        <path id="path228521" d="M 723.729,410.675 V 6.91" class="grid" />
        <path id="path228523" d="M 760.434,410.675 V 229.542 m 0,-15.48 V 6.91" class="grid" />
        <path id="path228525" d="m 6.129,392.322 h 362.038 m 20.692,0 h 391.764" class="grid" />
        <path id="path228527" d="M 6.129,355.616 H 780.623" class="grid" />
        <path id="path228529" d="M 6.129,318.91 H 780.623" class="grid" />
        <path id="path228531" d="M 6.129,282.204 H 780.623" class="grid" />
        <path id="path228533" d="M 6.129,245.498 H 780.623" class="grid" />
        <path id="path228535" d="M 6.129,208.792 H 780.623" class="grid" />
        <path id="path228537" d="M 6.129,172.087 H 780.623" class="grid" />
        <path id="path228539" d="M 6.129,135.38 H 780.623" class="grid" />
        <path id="path228541" d="M 6.129,98.675 H 780.623" class="grid" />
        <path id="path228543" d="M 6.129,61.969 H 780.623" class="grid" />
        <path id="path228545" d="m 6.129,25.263 h 372.487 m 10.243,0 h 391.764" class="grid" />
    </g>
    <g id="axes">
        <path id="path228548" d="M 6.129,208.792 H 780.623" class="axes" />
        <path id="path228550" d="M 393.376,410.675 V 6.91" class="axes" />
    </g>
    <g id="notch labels" style="fill:#b8b8de;stroke:none">
        <g id="g228561" transform="matrix(0.01523,0,0,-0.01523,13.473,226.598)">
            <use xlink:href="#STIXWEBMAIN-2212" id="use228553" x="0" y="0" />
            <g id="g228559" transform="translate(685)">
                <use xlink:href="#STIXWEBMAIN-31" id="use228555" />
                <use xlink:href="#STIXWEBMAIN-30" id="use228557" x="500" y="0" />
            </g>
        </g>
        <g id="g228567" transform="matrix(0.01523,0,0,-0.01523,200.812,227.4)">
            <use xlink:href="#STIXWEBMAIN-2212" id="use228563" x="0" y="0" />
            <use xlink:href="#STIXWEBMAIN-35" id="use228565" x="685" y="0" />
        </g>
        <g id="g228571" transform="matrix(0.01523,0,0,-0.01523,379.175,226.593)">
            <use xlink:href="#STIXWEBMAIN-30" id="use228569" x="0" y="0" />
        </g>
        <g id="g228575" transform="matrix(0.01523,0,0,-0.01523,573.095,227.392)">
            <use xlink:href="#STIXWEBMAIN-35" id="use228573" x="0" y="0" />
        </g>
        <g id="g228581" transform="matrix(0.01523,0,0,-0.01523,752.81,226.598)">
            <use xlink:href="#STIXWEBMAIN-31" id="use228577" />
            <use xlink:href="#STIXWEBMAIN-30" id="use228579" x="500" y="0" />
        </g>
        <g id="g228587" transform="matrix(0.01523,0,0,-0.01523,369.48,397.47)">
            <use xlink:href="#STIXWEBMAIN-2212" id="use228583" x="0" y="0" />
            <use xlink:href="#STIXWEBMAIN-35" id="use228585" x="685" y="0" />
        </g>
        <g id="g228591" transform="matrix(0.01523,0,0,-0.01523,379.927,30.409)">
            <use xlink:href="#STIXWEBMAIN-35" id="use228589" x="0" y="0" />
        </g>
    </g>
    <g id="graphs">
        <g id="g228596" clip-path="url(#trbl_clip_0_822.9_429_0)" transform="matrix(0.94118,0,0,0.94118,6.129,6.91)">
            <path id="path228594" d="m -17.55,215.163 c 13,0.424 26,0.874 39,1.105 13,0.23 26,0.22 39,-0.2 13,-0.423 26,-1.273 39,-2.368 13,-1.095 26,-2.424 39,-3.373 13,-0.95 26,-1.475 39,-0.946 13,0.529 26,2.164 39,4.762 13,2.598 26,6.16 39,9.29 13,3.13 26,5.73 39,5.863 13,0.132 26,-2.36 39,-7.958 13,-5.597 26,-14.366 39,-23.468 13,-9.102 26,-18.353 39,-22.37 13,-4.017 26,-2.385 39,8.146 13,10.53 26,30.275 39,54.39 13,24.116 26,52.328 39,70.948 13,18.62 26,26.627 39,11.347 13,-15.279 26,-54.951 39,-113.672 13,-58.72 26,-136.348 39,-200.912 13,-64.563 26,-113.788 39,-107.002 13,6.786 26,72.922 39,203.442 13,130.52 26,326.49 39,520.417 13,193.926 26,381.303 39,445.995 13,64.692 26,-2.407 39,-259.835" style="fill:none;stroke:#ff0000;stroke-width:1.7" />
        </g>
        <g id="g228600" clip-path="url(#trbl_clip_0_822.9_429_0)" transform="matrix(0.94118,0,0,0.94118,6.129,6.91)">
            <path id="path228598" d="m -17.55,215.786 c 13,0.068 26,-0.074 39,-0.496 13,-0.422 26,-1.133 39,-1.927 13,-0.793 26,-1.655 39,-2.127 13,-0.472 26,-0.517 39,0.208 13,0.726 26,2.254 39,4.276 13,2.023 26,4.526 39,6.38 13,1.855 26,2.98 39,2.162 13,-0.818 26,-3.682 39,-8.417 13,-4.736 26,-11.353 39,-17.328 13,-5.975 26,-11.133 39,-11.8 13,-0.67 26,3.447 39,13.474 13,10.028 26,26.11 39,43.216 13,17.106 26,34.915 39,43.378 13,8.462 26,6.805 39,-11.542 13,-18.347 26,-54.01 39,-98.74 13,-44.73 26,-98.082 39,-134.819 13,-36.736 26,-54.99 39,-30.13 13,24.86 26,94.961 39,202.453 13,107.492 26,252.277 39,376.234 13,123.957 26,222.99 39,219.695 13,-3.295 26,-115.218 39,-350.405 13,-235.187 26,-596.01 39,-962.025" style="fill:none;stroke:#0000ff;stroke-width:1.7" />
        </g>
        <g id="g228604" clip-path="url(#trbl_clip_0_822.9_429_0)" transform="matrix(0.94118,0,0,0.94118,6.129,6.91)">
            <path id="path228602" d="m -17.55,214.78 c 13,-0.373 26,-0.928 39,-1.468 13,-0.54 26,-1.053 39,-1.213 13,-0.16 26,0.057 39,0.806 13,0.749 26,2.044 39,3.526 13,1.482 26,3.128 39,4.083 13,0.956 26,1.157 39,-0.08 13,-1.237 26,-3.974 39,-7.704 13,-3.73 26,-8.432 39,-12.039 13,-3.607 26,-5.97 39,-4.757 13,1.213 26,6.198 39,14.81 13,8.61 26,20.881 39,32.257 13,11.375 26,21.543 39,23.564 13,2.022 26,-4.655 39,-22.56 13,-17.906 26,-47.335 39,-79.417 13,-32.082 26,-66.258 39,-83.8 13,-17.543 26,-17.02 39,14.744 13,31.764 26,95.998 39,178.803 13,82.805 26,183.47 39,255.558 13,72.089 26,112.194 39,72.631 13,-39.563 26,-162.865 39,-359.21 13,-196.343 26,-465.847 39,-703.114 13,-237.267 26,-434.933 39,-446.08" style="fill:none;stroke:#dddd00;stroke-width:1.7" />
        </g>
        <g id="g228608" clip-path="url(#trbl_clip_0_822.9_429_0)" transform="matrix(0.94118,0,0,0.94118,6.129,6.91)">
            <path id="path228606" d="m -17.55,213.42 c 13,-0.342 26,-0.608 39,-0.582 13,0.026 26,0.361 39,1.037 13,0.675 26,1.698 39,2.719 13,1.02 26,2.017 39,2.379 13,0.362 26,0.041 39,-1.28 13,-1.322 26,-3.677 39,-6.44 13,-2.762 26,-5.894 39,-7.813 13,-1.92 26,-2.506 39,-0.417 13,2.088 26,6.972 39,13.837 13,6.865 26,15.68 39,22.667 13,6.988 26,11.876 39,10.195 13,-1.68 26,-10.302 39,-25.924 13,-15.623 26,-38.332 39,-59.933 13,-21.601 26,-41.538 39,-46.732 13,-5.195 26,5.39 39,37.248 13,31.858 26,85.594 39,145.638 13,60.044 26,125.432 39,161.333 13,35.9 26,39.664 39,-14.93 13,-54.594 26,-169.951 39,-322.939 13,-152.987 26,-342.496 39,-483.275 13,-140.779 26,-226.612 39,-165.527 13,61.085 26,276.865 39,634.702" style="fill:none;stroke:#00cc00;stroke-width:1.7" />
        </g>
        <g id="g228612" clip-path="url(#trbl_clip_0_822.9_429_0)" transform="matrix(0.94118,0,0,0.94118,6.129,6.91)">
            <path id="path228610" d="m -17.55,213.426 c 13,0.124 26,0.484 39,1.043 13,0.559 26,1.317 39,1.973 13,0.656 26,1.189 39,1.19 13,0 26,-0.565 39,-1.781 13,-1.216 26,-3.097 39,-5.023 13,-1.925 26,-3.854 39,-4.644 13,-0.79 26,-0.352 39,1.97 13,2.322 26,6.593 39,11.733 13,5.14 26,11.086 39,14.91 13,3.825 26,5.309 39,1.824 13,-3.484 26,-12.168 39,-24.776 13,-12.61 26,-29.102 39,-42.588 13,-13.485 26,-23.471 39,-21.416 13,2.054 26,16.854 39,45.124 13,28.271 26,70.214 39,111.133 13,40.92 26,79.827 39,92.122 13,12.296 26,-3.958 39,-60.42 13,-56.462 26,-154.364 39,-266.513 13,-112.15 26,-236.902 39,-309.598 13,-72.696 26,-88.45 39,4.592 13,93.044 26,299.565 39,581.655 13,282.09 26,638.09 39,911.81" style="fill:none;stroke:#ff00ff;stroke-width:1.7" />
        </g>
    </g>
    <path id="use24-2" stroke-width="0.01904" d="m 407.08269,-26.634783 q 0.11624,-0.680168 0.89674,-1.570823 0.78048,-0.890747 1.9263,-0.906891 0.58122,0 1.0628,0.291501 0.48158,0.291492 0.71406,0.728701 0.69747,-1.02021 1.67723,-1.02021 0.61443,0 1.06279,0.356278 0.44836,0.356279 0.46498,0.955433 0,0.469682 -0.23248,0.761183 -0.2325,0.291501 -0.44837,0.356279 -0.2159,0.06439 -0.38195,0.06439 -0.31551,0 -0.5148,-0.178182 -0.19926,-0.178097 -0.19926,-0.469598 0,-0.744946 0.83031,-1.020295 -0.18267,-0.210486 -0.66425,-0.210486 -0.21588,0 -0.31552,0.03266 -0.63103,0.259112 -0.92994,1.068837 -0.99638,3.578939 -0.99638,4.178177 0,0.453446 0.2657,0.64778 0.2657,0.194334 0.58123,0.194334 0.61441,0 1.21224,-0.534461 0.59783,-0.534375 0.8137,-1.311711 0.0497,-0.161945 0.0996,-0.178182 0.0497,-0.01633 0.2657,-0.03266 h 0.0665 q 0.2491,0 0.2491,0.129556 0,0.01633 -0.0333,0.178182 -0.26569,0.923043 -1.02957,1.635601 -0.76389,0.712558 -1.77687,0.712558 -1.16243,0 -1.76024,-1.020211 -0.68078,1.004059 -1.56089,1.004059 h -0.0996 q -0.8137,0 -1.16243,-0.421057 -0.34872,-0.421057 -0.36533,-0.89074 0,-0.518223 0.31551,-0.842113 0.31552,-0.32389 0.74728,-0.32389 0.71406,0 0.71406,0.680169 0,0.323889 -0.19927,0.566849 -0.19926,0.242875 -0.38195,0.32389 -0.18267,0.08072 -0.21587,0.08072 l -0.0497,0.01633 q 0,0.01633 0.0996,0.06439 0.0996,0.04806 0.2657,0.113318 0.16606,0.06439 0.31551,0.04899 0.59782,0 1.02959,-0.728802 0.14945,-0.259112 0.38193,-1.101226 0.23248,-0.842113 0.46498,-1.749004 0.23248,-0.906892 0.26569,-1.068837 0.0829,-0.4372 0.0829,-0.631534 0,-0.453445 -0.24909,-0.647779 -0.2491,-0.194334 -0.56461,-0.194334 -0.66425,0 -1.24547,0.518224 -0.58122,0.518223 -0.8137,1.327948 -0.0333,0.145699 -0.083,0.161944 -0.0497,0.01633 -0.26569,0.03266 h -0.2325 q -0.0996,-0.09717 -0.0996,-0.17819 z" style="display:inline;stroke:none" />
    <path d="m 421.61718,-33.986974 h -4.33903 v -1.227397 h 4.33903 z m 8.80601,3.329568 q -0.65364,0.305154 -1.24469,0.474684 -0.5841,0.16953 -1.24469,0.16953 -0.84139,0 -1.5437,-0.237342 -0.70231,-0.244123 -1.20296,-0.73237 -0.50761,-0.488246 -0.78576,-1.234178 -0.27814,-0.745931 -0.27814,-1.742768 0,-1.858048 1.04304,-2.915915 1.04998,-1.057866 2.76752,-1.057866 0.66754,0 1.30727,0.183092 0.64669,0.183092 1.18211,0.447559 v 1.41727 h -0.0696 q -0.598,-0.45434 -1.23773,-0.698463 -0.63278,-0.244123 -1.23774,-0.244123 -1.11257,0 -1.75925,0.732369 -0.63973,0.725588 -0.63973,2.136077 0,1.369802 0.62582,2.108953 0.63277,0.732369 1.77316,0.732369 0.39636,0 0.80661,-0.101718 0.41027,-0.101718 0.73709,-0.264466 0.28509,-0.142405 0.53541,-0.298373 0.25034,-0.162749 0.39636,-0.278029 h 0.0696 z m 9.00767,-3.309225 q 0,1.851267 -0.97351,2.922697 -0.9735,1.071429 -2.60759,1.071429 -1.648,0 -2.6215,-1.071429 -0.96654,-1.07143 -0.96654,-2.922697 0,-1.851267 0.96654,-2.922696 0.9735,-1.078211 2.6215,-1.078211 1.63409,0 2.60759,1.078211 0.97351,1.071429 0.97351,2.922696 z m -1.349,0 q 0,-1.47152 -0.59105,-2.183545 -0.59106,-0.718807 -1.64105,-0.718807 -1.0639,0 -1.65495,0.718807 -0.5841,0.712025 -0.5841,2.183545 0,1.424052 0.59105,2.163202 0.59106,0.73237 1.648,0.73237 1.04304,0 1.63409,-0.725588 0.59801,-0.73237 0.59801,-2.169984 z m 10.70433,0 q 0,1.851267 -0.9735,2.922697 -0.9735,1.071429 -2.60758,1.071429 -1.64801,0 -2.62151,-1.071429 -0.96655,-1.07143 -0.96655,-2.922697 0,-1.851267 0.96655,-2.922696 0.9735,-1.078211 2.62151,-1.078211 1.63408,0 2.60758,1.078211 0.9735,1.071429 0.9735,2.922696 z m -1.34899,0 q 0,-1.47152 -0.59106,-2.183545 -0.59105,-0.718807 -1.64103,-0.718807 -1.0639,0 -1.65496,0.718807 -0.5841,0.712025 -0.5841,2.183545 0,1.424052 0.59105,2.163202 0.59105,0.73237 1.64801,0.73237 1.04302,0 1.63408,-0.725588 0.59801,-0.73237 0.59801,-2.169984 z m 8.93117,-2.400544 h -0.0696 q -0.29205,-0.06781 -0.57019,-0.09494 -0.27119,-0.03391 -0.64668,-0.03391 -0.60496,0 -1.1682,0.264467 -0.56324,0.257685 -1.08475,0.671338 v 5.37749 h -1.30725 v -7.574598 h 1.30728 v 1.118898 q 0.77879,-0.610308 1.36984,-0.861212 0.59801,-0.257686 1.21688,-0.257686 0.34073,0 0.49371,0.02034 0.15298,0.01356 0.45893,0.06103 z m 8.24277,6.184453 h -1.30727 v -0.7934 q -0.56324,0.474683 -1.17515,0.73915 -0.61192,0.264467 -1.32814,0.264467 -1.39071,0 -2.21124,-1.044305 -0.81356,-1.044304 -0.81356,-2.895571 0,-0.96293 0.27813,-1.715643 0.2851,-0.752713 0.7649,-1.281647 0.47284,-0.515371 1.09867,-0.786619 0.63277,-0.271248 1.30727,-0.271248 0.61192,0 1.08475,0.128843 0.47285,0.122062 0.99437,0.386529 v -3.2821 h 1.30727 z m -1.30727,-1.86483 V -36.3943 q -0.52848,-0.23056 -0.94569,-0.318716 -0.41721,-0.08816 -0.91092,-0.08816 -1.09866,0 -1.71058,0.745932 -0.61191,0.745932 -0.61191,2.115734 0,1.349458 0.47284,2.054703 0.47285,0.698463 1.51589,0.698463 0.55627,0 1.12648,-0.237342 0.57019,-0.244123 1.06389,-0.62387 z m 5.99676,-6.977852 h -1.47416 v -1.322334 h 1.47416 z m -0.0834,8.842682 h -1.30727 v -7.574598 h 1.30727 z m 9.79342,0 h -1.30727 v -4.312842 q 0,-0.522152 -0.0626,-0.976493 -0.0626,-0.461121 -0.22947,-0.718807 -0.17384,-0.28481 -0.50065,-0.420434 -0.32682,-0.142405 -0.84834,-0.142405 -0.53542,0 -1.11953,0.257685 -0.58409,0.257686 -1.11952,0.657777 v 5.655519 h -1.30728 v -7.574598 h 1.30728 v 0.840868 q 0.61191,-0.495027 1.26555,-0.773056 0.65364,-0.27803 1.34204,-0.27803 1.2586,0 1.91919,0.739151 0.66059,0.739151 0.66059,2.129296 z m 9.26494,0 h -1.30032 v -0.806963 q -0.17384,0.115281 -0.47284,0.325498 -0.29205,0.203436 -0.57019,0.325497 -0.32682,0.155968 -0.75099,0.257686 -0.42417,0.108499 -0.99436,0.108499 -1.04998,0 -1.78011,-0.67812 -0.73013,-0.67812 -0.73013,-1.729205 0,-0.861213 0.3755,-1.390146 0.38244,-0.535715 1.08476,-0.840869 0.70925,-0.305153 1.70361,-0.413653 0.99437,-0.108499 2.13475,-0.162748 v -0.196655 q 0,-0.433997 -0.15992,-0.718807 -0.15298,-0.28481 -0.44503,-0.447559 -0.27814,-0.155968 -0.66755,-0.210217 -0.3894,-0.05425 -0.81357,-0.05425 -0.51457,0 -1.14734,0.135624 -0.63277,0.128842 -1.30727,0.379747 h -0.0696 v -1.295209 q 0.38244,-0.101718 1.10561,-0.22378 0.72318,-0.122061 1.42549,-0.122061 0.82052,0 1.42548,0.135624 0.61191,0.128843 1.05694,0.447559 0.43807,0.311935 0.66755,0.806962 0.22946,0.495028 0.22946,1.227397 z m -1.30032,-1.86483 v -2.108952 q -0.598,0.03391 -1.41157,0.101718 -0.80662,0.06781 -1.27945,0.196654 -0.56325,0.155968 -0.91093,0.488247 -0.34767,0.325497 -0.34767,0.901899 0,0.650995 0.4033,0.983274 0.40331,0.325497 1.23079,0.325497 0.6884,0 1.25859,-0.257685 0.5702,-0.264467 1.05694,-0.630652 z m 8.56264,1.797018 q -0.36855,0.09494 -0.80662,0.155967 -0.43112,0.06103 -0.77185,0.06103 -1.18906,0 -1.80793,-0.62387 -0.61887,-0.62387 -0.61887,-2.000453 v -4.028032 h -0.8831 v -1.071429 h 0.8831 v -2.176765 h 1.30728 v 2.176765 h 2.69799 v 1.071429 h -2.69799 v 3.45163 q 0,0.596745 0.0279,0.935805 0.0278,0.332279 0.19469,0.62387 0.15298,0.271248 0.41722,0.400091 0.27119,0.122061 0.82052,0.122061 0.31986,0 0.66755,-0.08816 0.34767,-0.09494 0.50065,-0.155968 h 0.0696 z m 8.7921,-3.587254 h -5.72279 q 0,0.698463 0.21556,1.220616 0.21556,0.515371 0.59105,0.847649 0.36159,0.325498 0.85529,0.488247 0.50065,0.162748 1.09866,0.162748 0.79271,0 1.59237,-0.305154 0.80663,-0.311935 1.14734,-0.610307 h 0.0696 v 1.390145 q -0.66059,0.271248 -1.34899,0.45434 -0.68841,0.183093 -1.44634,0.183093 -1.9331,0 -3.01785,-1.01718 -1.08476,-1.023961 -1.08476,-2.902353 0,-1.858048 1.03608,-2.949821 1.04304,-1.091773 2.73971,-1.091773 1.5715,0 2.41984,0.895119 0.85529,0.895118 0.85529,2.542949 z m -1.2725,-0.976492 q -0.007,-1.003618 -0.52153,-1.552895 -0.50761,-0.549277 -1.55064,-0.549277 -1.04999,0 -1.67581,0.603527 -0.61887,0.603526 -0.70231,1.498645 z" id="text1" style="font-size:14.0633px;line-height:1.2;-inkscape-font-specification:sans-serif;text-align:center;letter-spacing:0.703166px;text-anchor:middle;stroke-width:1.15;stroke-miterlimit:2" aria-label="-coordinate" />
    <path d="m 226.69052,-794.6581 q -0.37989,0.10035 -0.83146,0.16485 -0.4444,0.0645 -0.79561,0.0645 -1.22569,0 -1.86361,-0.65943 -0.63793,-0.65943 -0.63793,-2.11448 v -4.25762 h -0.9103 v -1.1325 h 0.9103 v -2.30084 h 1.34753 v 2.30084 h 2.78108 v 1.1325 h -2.78108 v 3.64837 q 0,0.63076 0.0287,0.98914 0.0287,0.35122 0.2007,0.65943 0.15769,0.28671 0.43006,0.4229 0.27954,0.12902 0.84579,0.12902 0.32972,0 0.68811,-0.0932 0.35838,-0.10035 0.51607,-0.16486 h 0.0717 z m 3.80893,-9.27504 h -1.51956 v -1.3977 h 1.51956 z m -0.086,9.34671 h -1.34754 v -8.00634 h 1.34754 z m 15.08376,0 h -1.34754 v -4.55867 q 0,-0.51607 -0.0502,-0.99631 -0.043,-0.48024 -0.19353,-0.76695 -0.16486,-0.30821 -0.47307,-0.4659 -0.30821,-0.15769 -0.8888,-0.15769 -0.56625,0 -1.1325,0.28671 -0.56625,0.27954 -1.1325,0.71677 0.0215,0.16486 0.0358,0.38706 0.0143,0.21503 0.0143,0.43006 v 5.12492 h -1.34754 v -4.55867 q 0,-0.53041 -0.0502,-1.00348 -0.043,-0.48024 -0.19353,-0.76695 -0.16486,-0.30821 -0.47307,-0.45873 -0.30821,-0.15769 -0.8888,-0.15769 -0.55191,0 -1.11099,0.27237 -0.55192,0.27238 -1.10383,0.69527 v 5.97788 h -1.34754 v -8.00634 h 1.34754 v 0.88879 q 0.63076,-0.52324 1.25435,-0.81712 0.63076,-0.29387 1.34036,-0.29387 0.81712,0 1.38337,0.34405 0.57342,0.34405 0.85296,0.9533 0.81712,-0.6881 1.49089,-0.98914 0.67377,-0.30821 1.44071,-0.30821 1.31886,0 1.94246,0.80278 0.63076,0.79562 0.63076,2.22916 z m 10.03051,-3.8634 h -5.89904 q 0,0.73828 0.2222,1.29019 0.2222,0.54475 0.60926,0.89597 0.37272,0.34405 0.88163,0.51607 0.51607,0.17203 1.1325,0.17203 0.81712,0 1.64141,-0.32255 0.83145,-0.32971 1.18267,-0.64509 h 0.0717 v 1.46938 q -0.68094,0.28671 -1.39054,0.48024 -0.70961,0.19353 -1.49089,0.19353 -1.99262,0 -3.11079,-1.07516 -1.11816,-1.08233 -1.11816,-3.06779 0,-1.96396 1.06799,-3.11796 1.07515,-1.154 2.82408,-1.154 1.61991,0 2.49437,0.94614 0.88163,0.94614 0.88163,2.68789 z m -1.3117,-1.03215 q -0.007,-1.06082 -0.53758,-1.64141 -0.52324,-0.58059 -1.5984,-0.58059 -1.08232,0 -1.72742,0.63793 -0.63793,0.63793 -0.72394,1.58407 z" id="text3" style="-inkscape-font-specification:sans-serif;stroke-width:1.15;stroke-miterlimit:2" transform="matrix(0,1.0111365,-0.98898615,0,0,0)" aria-label="time" />
    <path style="fill:none;stroke:#000000;stroke-width:1;stroke-miterlimit:2;stroke-dasharray:none;marker-end:url(#Triangle)" d="m 405.30758,-4.3495159 c -4.57126,-4.4391495 -12.74981,-1.0205382 -11.99005,5.33547693" id="path3" sodipodi:nodetypes="cc" />
    <path style="fill:none;stroke:#000000;stroke-width:1;stroke-miterlimit:2;marker-end:url(#Triangle);stroke-dasharray:none" d="m 790.87579,220.85985 c 2.61487,-5.46523 1.48849,-10.37755 -4.3785,-11.44011" id="path4" sodipodi:nodetypes="cc" />
    <text xml:space="preserve" style="font-style:normal;font-variant:normal;font-weight:normal;font-stretch:normal;font-size:14.0633px;line-height:1.2;font-family:sans-serif;-inkscape-font-specification:sans-serif;text-align:center;letter-spacing:0.703166px;text-anchor:middle;fill:#000000;stroke:none;stroke-width:1.15;stroke-miterlimit:2" x="452.85858" y="-20.791243" id="text2" transform="scale(1.0126302,0.98752734)"><tspan sodipodi:role="line" id="tspan2" x="453.21017" y="-20.791243" style="font-style:normal;font-variant:normal;font-weight:normal;font-stretch:normal;font-family:sans-serif;-inkscape-font-specification:sans-serif;stroke-width:1.15">-coordinate</tspan></text>
    <text xml:space="preserve" style="font-style:normal;font-variant:normal;font-weight:normal;font-stretch:normal;font-size:14.6795px;line-height:1.2;font-family:sans-serif;-inkscape-font-specification:sans-serif;text-align:center;letter-spacing:0.733975px;text-anchor:middle;fill:#000000;stroke:none;stroke-width:1.15;stroke-miterlimit:2" x="238.72585" y="-827.42676" id="text4" transform="matrix(0,1.0111365,-0.98898615,0,0,0)"><tspan sodipodi:role="line" id="tspan4" x="239.09283" y="-827.42676" style="font-style:normal;font-variant:normal;font-weight:normal;font-stretch:normal;font-family:sans-serif;-inkscape-font-specification:sans-serif;stroke-width:1.15">time</tspan></text>
    <path d="m 416.67365,1.5535669 h -1.64801 l -2.20428,-2.909134 -2.21819,2.909134 h -1.52283 l 3.03175,-3.7771273 -3.00393,-3.7974709 h 1.64799 l 2.19038,2.8616656 2.19733,-2.8616656 h 1.52979 l -3.05263,3.7296589 z m 6.18451,-3.8042521 h -4.33903 v -1.2273969 h 4.33903 z m 8.806,3.3295682 q -0.65363,0.3051538 -1.24469,0.4746839 -0.5841,0.1695299 -1.24469,0.1695299 -0.84138,0 -1.54369,-0.237342 -0.70231,-0.244123 -1.20297,-0.73236934 -0.50761,-0.48824625 -0.78576,-1.23417803 -0.27814,-0.74593173 -0.27814,-1.74276783 0,-1.8580483 1.04304,-2.9159151 1.04999,-1.057867 2.76752,-1.057867 0.66755,0 1.30728,0.1830924 0.64668,0.1830923 1.1821,0.4475591 v 1.4172704 h -0.0696 q -0.598,-0.4543403 -1.23773,-0.6984634 -0.63278,-0.2441232 -1.23773,-0.2441232 -1.11258,0 -1.75927,0.7323695 -0.63972,0.7255881 -0.63972,2.1360773 0,1.36980194 0.62582,2.10895252 0.63277,0.73236938 1.77317,0.73236938 0.39635,0 0.80661,-0.10171797 0.41025,-0.10171797 0.73708,-0.26446671 0.2851,-0.14240517 0.53542,-0.29837272 0.25033,-0.16274875 0.39635,-0.27802912 h 0.0696 z m 9.00767,-3.3092247 q 0,1.8512671 -0.9735,2.92269638 -0.97351,1.07142932 -2.6076,1.07142932 -1.64799,0 -2.62149,-1.07142932 -0.96655,-1.07142928 -0.96655,-2.92269638 0,-1.851267 0.96655,-2.9226962 0.9735,-1.0782105 2.62149,-1.0782105 1.63409,0 2.6076,1.0782105 0.9735,1.0714292 0.9735,2.9226962 z m -1.349,0 q 0,-1.4715199 -0.59105,-2.1835457 -0.59106,-0.718807 -1.64105,-0.718807 -1.0639,0 -1.65495,0.718807 -0.58409,0.7120258 -0.58409,2.1835457 0,1.42405164 0.59105,2.1632022 0.59105,0.73236939 1.64799,0.73236939 1.04304,0 1.63409,-0.72558818 0.59801,-0.73236938 0.59801,-2.16998341 z m 10.70434,0 q 0,1.8512671 -0.97351,2.92269638 -0.97349,1.07142932 -2.60758,1.07142932 -1.64801,0 -2.6215,-1.07142932 -0.96655,-1.07142928 -0.96655,-2.92269638 0,-1.851267 0.96655,-2.9226962 0.97349,-1.0782105 2.6215,-1.0782105 1.63409,0 2.60758,1.0782105 0.97351,1.0714292 0.97351,2.9226962 z m -1.349,0 q 0,-1.4715199 -0.59105,-2.1835457 -0.59105,-0.718807 -1.64104,-0.718807 -1.0639,0 -1.65495,0.718807 -0.58411,0.7120258 -0.58411,2.1835457 0,1.42405164 0.59105,2.1632022 0.59107,0.73236939 1.64801,0.73236939 1.04303,0 1.63409,-0.72558818 0.598,-0.73236938 0.598,-2.16998341 z m 8.93118,-2.400544 h -0.0696 q -0.29205,-0.067812 -0.57019,-0.094937 -0.27119,-0.033906 -0.64668,-0.033906 -0.60497,0 -1.1682,0.2644666 -0.56325,0.2576856 -1.08476,0.6713387 v 5.37749 h -1.30728 v -7.5745982 h 1.30728 v 1.1188977 q 0.77879,-0.6103078 1.36986,-0.8612121 0.59799,-0.2576856 1.21686,-0.2576856 0.34073,0 0.49371,0.020344 0.15298,0.013563 0.45893,0.061031 z m 8.24276,6.1844526 h -1.30727 V 0.76016666 q -0.56324,0.47468384 -1.17515,0.73915054 -0.61192,0.2644668 -1.32813,0.2644668 -1.39072,0 -2.21124,-1.04430453 -0.81357,-1.04430449 -0.81357,-2.89557147 0,-0.9629301 0.27815,-1.7156431 0.28509,-0.752713 0.76489,-1.2816464 0.47284,-0.5153711 1.09866,-0.7866189 0.63277,-0.271248 1.30728,-0.271248 0.61191,0 1.08475,0.1288428 0.47284,0.1220615 0.99436,0.3865282 v -3.2820998 h 1.30727 z m -1.30727,-1.86482951 V -4.6580105 q -0.52847,-0.2305607 -0.94569,-0.3187163 -0.41721,-0.088156 -0.91091,-0.088156 -1.09867,0 -1.71058,0.7459318 -0.61192,0.7459318 -0.61192,2.1157338 0,1.34945834 0.47285,2.05470293 0.47284,0.69846339 1.51588,0.69846339 0.55629,0 1.12648,-0.23734192 0.57019,-0.24412313 1.06389,-0.62386981 z m 5.99676,-6.97785269 h -1.47415 v -1.3223335 h 1.47415 z m -0.0834,8.8426822 h -1.30727 v -7.5745982 h 1.30727 z m 9.79342,0 h -1.30727 V -2.759275 q 0,-0.5221523 -0.0626,-0.9764925 -0.0626,-0.4611215 -0.22947,-0.7188071 -0.17384,-0.2848103 -0.50066,-0.4204342 -0.32681,-0.1424052 -0.84833,-0.1424052 -0.53543,0 -1.11953,0.2576856 -0.5841,0.2576855 -1.11953,0.6577761 v 5.6555192 h -1.30727 v -7.5745982 h 1.30727 v 0.8408686 q 0.61192,-0.4950275 1.26556,-0.7730566 0.65363,-0.2780291 1.34204,-0.2780291 1.2586,0 1.91918,0.7391506 0.66059,0.7391505 0.66059,2.1292961 z m 9.26495,0 h -1.30032 V 0.74660426 q -0.17384,0.11528036 -0.47284,0.32549744 -0.29206,0.203436 -0.5702,0.3254976 -0.32681,0.1559676 -0.75098,0.2576854 -0.42417,0.1084993 -0.99436,0.1084993 -1.04999,0 -1.78012,-0.6781198 -0.73012,-0.67811983 -0.73012,-1.72920552 0,-0.86121218 0.37549,-1.39014548 0.38245,-0.5357148 1.08476,-0.8408686 0.70927,-0.305154 1.70362,-0.4136531 0.99436,-0.1084991 2.13475,-0.1627487 V -3.647612 q 0,-0.4339967 -0.15993,-0.718807 -0.15298,-0.2848103 -0.44503,-0.447559 -0.27814,-0.1559676 -0.66755,-0.2102172 -0.38939,-0.05425 -0.81356,-0.05425 -0.51456,0 -1.14734,0.135624 -0.63278,0.1288428 -1.30727,0.3797471 h -0.0696 V -5.858283 q 0.38244,-0.1017178 1.10562,-0.2237795 0.72317,-0.1220615 1.42548,-0.1220615 0.82053,0 1.42548,0.1356239 0.61192,0.1288428 1.05694,0.4475591 0.43808,0.3119351 0.66755,0.8069626 0.22947,0.4950274 0.22947,1.2273968 z m -1.30032,-1.86482951 V -2.4202152 q -0.598,0.033906 -1.41157,0.101718 -0.80662,0.067813 -1.27946,0.1966548 -0.56325,0.1559675 -0.91092,0.4882462 -0.34768,0.3254974 -0.34768,0.90189931 0,0.650995 0.4033,0.98327371 0.40331,0.32549749 1.23079,0.32549749 0.6884,0 1.2586,-0.25768552 0.57019,-0.26446672 1.05694,-0.6306514 z m 8.56263,1.79701741 q -0.36853,0.094937 -0.80662,0.1559676 -0.43111,0.061031 -0.77184,0.061031 -1.18907,0 -1.80793,-0.6238702 -0.61886,-0.62387025 -0.61886,-2.00045343 V -4.949602 h -0.88311 v -1.0714293 h 0.88311 v -2.1767646 h 1.30726 v 2.1767646 h 2.69799 v 1.0714293 h -2.69799 v 3.4516298 q 0,0.59674536 0.0279,0.93580526 0.0279,0.3322787 0.1947,0.62387021 0.15298,0.27124791 0.41721,0.40009067 0.27119,0.12206157 0.82053,0.12206157 0.31986,0 0.66754,-0.0881556 0.34768,-0.0949367 0.50066,-0.15596755 h 0.0696 z m 8.7921,-3.5872537 h -5.72278 q 0,0.6984634 0.21555,1.22061565 0.21556,0.51537105 0.59106,0.84764975 0.36159,0.3254975 0.85528,0.48824625 0.50067,0.16274875 1.09868,0.16274875 0.7927,0 1.59236,-0.3051539 0.80662,-0.31193511198 1.14734,-0.61030782 h 0.0696 V 1.0924454 q -0.66059,0.2712479 -1.349,0.4543402 -0.68841,0.1830924 -1.44634,0.1830924 -1.93309,0 -3.01785,-1.01717973 -1.08476,-1.02396088 -1.08476,-2.90235267 0,-1.8580482 1.03608,-2.9498211 1.04304,-1.0917729 2.73971,-1.0917729 1.57151,0 2.41985,0.8951182 0.85528,0.895118 0.85528,2.5429491 z m -1.2725,-0.9764925 q -0.007,-1.0036173 -0.52151,-1.5528943 -0.50761,-0.549277 -1.55065,-0.549277 -1.05,0 -1.67581,0.6035266 -0.61887,0.6035266 -0.70231,1.4986447 z" id="text5" style="font-size:14.0633px;line-height:1.2;-inkscape-font-specification:sans-serif;text-align:center;letter-spacing:0.703166px;text-anchor:middle;stroke-width:1.15;stroke-miterlimit:2" aria-label="x-coordinate" />
</svg>
